<?xml version="1.0" encoding="utf-8"?>
<!-- Generator: Adobe Illustrator 19.0.0, SVG Export Plug-In . SVG Version: 6.00 Build 0)  -->
<svg version="1.1" xmlns="http://www.w3.org/2000/svg" xmlns:xlink="http://www.w3.org/1999/xlink" x="0px" y="0px"
	 viewBox="0 0 83.9 52.1" style="enable-background:new 0 0 83.9 52.1;" xml:space="preserve">
<style type="text/css">
	.st0{display:none;}
	.st1{display:inline;}
	.st2{fill:#FFFFFF;}
</style>
<g id="Layer_1" class="st0">
	<g id="XMLID_4_" class="st1">
		<g>
			<path id="XMLID_387_" d="M-202.3,31.8l4.8-27.7h5.3l-6.1,35h-7.8l-3-16.3l-3.1,16.3h-7.8l-6.1-35h5.2l4.8,27.7l3.9-20.5h6.1
				L-202.3,31.8z"/>
			<path id="XMLID_389_" d="M-173.2,14.1h5.1v25h-5.1v-1.6c-1.1,0.7-2.4,1.3-3.7,1.6c-0.7,0.2-1.5,0.3-2.3,0.3
				c-0.9,0-1.7-0.1-2.6-0.3c-2.4-0.6-4.4-1.8-6-3.7c-1.1-1.3-1.8-2.7-2.3-4.3c-0.1-0.5-0.2-0.9-0.3-1.2c-0.1-0.4-0.1-0.8-0.1-1.2v-4
				c0-0.4,0.1-0.8,0.2-1.2c0.1-0.4,0.1-0.8,0.3-1.2c0.5-1.6,1.2-3,2.3-4.3c1-1.2,2.3-2.1,3.8-2.8c1.5-0.7,3.1-1,4.7-1
				c2.1,0,4.1,0.6,5.9,1.9V14.1z M-173.3,29.7c0.1-0.5,0.2-1.5,0.2-3c0-1.5-0.1-2.6-0.2-3.1c-0.2-0.9-0.6-1.6-1.2-2.3
				c-1.2-1.4-2.8-2.1-4.6-2.1c-1.9,0-3.4,0.7-4.6,2.1c-0.6,0.7-1,1.4-1.3,2.3c-0.1,0.3-0.1,0.5-0.1,0.6c-0.1,0.4-0.1,1.2-0.1,2.4
				c0,1.2,0,2,0.1,2.4c0,0.2,0,0.3,0.1,0.5c0.2,0.9,0.6,1.8,1.3,2.5c1.2,1.4,2.7,2.1,4.6,2.1c1.9,0,3.4-0.7,4.6-2.1
				C-174,31.4-173.6,30.6-173.3,29.7z"/>
			<path id="XMLID_392_" d="M-152.4,14.3c0.8,0,1.6,0,2.4,0.3v5.1c-0.8-0.3-1.6-0.5-2.4-0.5c-1.9,0-3.4,0.7-4.6,2.1
				c-0.6,0.7-1,1.5-1.2,2.3c-0.1,0.2-0.1,0.6-0.1,1V39h-5.2v-25h5.2v2.1C-156.5,14.9-154.6,14.3-152.4,14.3z"/>
			<path id="XMLID_394_" d="M-125.2,23.3c0.1,0.4,0.1,0.8,0.1,1.2l0,3.9c0,0.4-0.1,0.8-0.2,1.2c0,0.4-0.1,0.8-0.3,1.2
				c-0.5,1.6-1.2,3-2.3,4.2c-1,1.2-2.3,2.1-3.8,2.8c-1.5,0.7-3,1-4.6,1c-2.1,0-4.1-0.6-6-1.8v12h-5.2V14.1h5.2v1.6
				c1.8-1.2,3.8-1.9,6-1.9c1.6,0,3.2,0.3,4.7,1s2.8,1.7,3.9,2.9c1,1.2,1.8,2.7,2.2,4.3C-125.3,22.6-125.3,23-125.2,23.3z
				 M-130.3,28.9c0.1-0.4,0.1-1.2,0.1-2.4c0-1.2,0-2-0.1-2.5c0-0.1-0.1-0.3-0.1-0.5c-0.2-0.9-0.7-1.7-1.3-2.5
				c-1.2-1.4-2.7-2.1-4.6-2.1c-1.9,0-3.4,0.7-4.6,2.1c-0.6,0.7-1,1.5-1.2,2.4c-0.1,0.5-0.2,1.5-0.2,3c0,1.5,0.1,2.6,0.2,3.1
				c0.2,0.9,0.6,1.6,1.2,2.3c1.2,1.4,2.7,2.2,4.6,2.2c1.8,0,3.4-0.7,4.6-2.2c0.6-0.7,1-1.4,1.2-2.3
				C-130.4,29.3-130.3,29.1-130.3,28.9z"/>
			<path id="XMLID_397_" d="M-108.7,4.1c2.6,0,4.8,0.9,6.6,2.8c1.8,1.9,2.8,4.1,2.8,6.6v2c0,2.6-0.9,4.8-2.8,6.6
				c-1.8,1.8-4,2.8-6.6,2.8h-7.4V39h-5.2v-35H-108.7z M-104.5,15.5v-2c0-1.2-0.4-2.2-1.2-3c-0.8-0.8-1.8-1.2-3-1.2h-7.4v10.4h7.4
				c1.2,0,2.2-0.4,3-1.2C-104.9,17.6-104.5,16.7-104.5,15.5z"/>
			<path id="XMLID_400_" d="M-85.4,14.3c0.8,0,1.6,0,2.5,0.3v5.1c-0.8-0.3-1.6-0.5-2.5-0.5c-1.9,0-3.4,0.7-4.6,2.1
				c-0.6,0.7-1,1.5-1.2,2.3c-0.1,0.2-0.1,0.6-0.2,1V39h-5.1v-25h5.1v2.1C-89.5,14.9-87.5,14.3-85.4,14.3z"/>
			<path id="XMLID_402_" d="M-77.9,17.2c2.2-2.2,4.8-3.3,7.9-3.3c3.1,0,5.7,1.1,7.9,3.3c2.2,2.2,3.3,4.8,3.3,7.9v3.2
				c0,2.5-0.8,4.7-2.3,6.7c-1.5,2-3.4,3.3-5.8,4c-1,0.3-2.1,0.5-3.2,0.5c-1.1,0-2.2-0.2-3.2-0.5c-2.3-0.7-4.3-2-5.8-4
				c-1.5-2-2.3-4.2-2.3-6.7v-3.2C-81.2,22-80.1,19.3-77.9,17.2z M-63.9,28.3v-3.2c0-1.7-0.6-3.1-1.8-4.3c-1.2-1.2-2.6-1.8-4.3-1.8
				c-1.7,0-3.1,0.6-4.3,1.8c-1.2,1.2-1.8,2.6-1.8,4.3v3.2c0,1.7,0.6,3.1,1.8,4.3c1.2,1.2,2.6,1.8,4.3,1.8c1.7,0,3.1-0.6,4.3-1.8
				C-64.5,31.4-63.9,30-63.9,28.3z"/>
			<path id="XMLID_405_" d="M-35.5,14.1l-7.8,13.7l7.4,11.3H-42l-4.6-7l-4.3,7h-6l7.2-11.8L-57,14.1h5.9l4.8,8.7l5-8.7H-35.5z"/>
			<path id="XMLID_407_" d="M-11.4,14.1v23.3c0,3.1-1.1,5.8-3.4,8c-2.2,2.2-4.9,3.3-8,3.3c-1.6,0-3.1-0.2-4.6-0.7
				c-1.4-0.4-2.7-1-4-1.9l2.8-4.3c0.8,0.6,1.7,1,2.7,1.3c1,0.3,2,0.5,3.1,0.5c1.7,0,3.2-0.6,4.4-1.8s1.8-2.7,1.8-4.4v-0.2
				c-1.5,1-3.2,1.6-5,1.8c-0.4,0-0.7,0-1,0c-0.4,0-0.8,0-1.2,0c-2.7-0.3-5-1.5-7-3.8c-0.5-0.6-0.9-1.2-1.3-1.9
				c-0.4-0.8-0.8-1.6-1-2.4c-0.1-0.5-0.2-0.9-0.3-1.2c-0.1-0.4-0.1-0.8-0.2-1.2V14.1h5.2c0,0.7,0,3.2,0,7.5c0,4.3,0,6.8,0.1,7.5
				c0,0.2,0,0.4,0.1,0.7c0.2,0.9,0.6,1.7,1.2,2.3c1.2,1.4,2.7,2.1,4.3,2.1c1.8,0,3.4-0.7,4.6-2.1c0.6-0.7,1-1.5,1.2-2.3
				c0.1-0.3,0.1-0.7,0.1-1.1V14.1H-11.4z"/>
		</g>
		<g id="XMLID_1_">
			<path id="XMLID_342_" d="M-202.3,31.8l4.8-27.7h5.3l-6.1,35h-7.8l-3-16.3l-3.1,16.3h-7.8l-6.1-35h5.2l4.8,27.7l3.9-20.5h6.1
				L-202.3,31.8z"/>
			<path id="XMLID_344_" d="M-173.2,14.1h5.1v25h-5.1v-1.6c-1.1,0.7-2.4,1.3-3.7,1.6c-0.7,0.2-1.5,0.3-2.3,0.3
				c-0.9,0-1.7-0.1-2.6-0.3c-2.4-0.6-4.4-1.8-6-3.7c-1.1-1.3-1.8-2.7-2.3-4.3c-0.1-0.5-0.2-0.9-0.3-1.2c-0.1-0.4-0.1-0.8-0.1-1.2v-4
				c0-0.4,0.1-0.8,0.2-1.2c0.1-0.4,0.1-0.8,0.3-1.2c0.5-1.6,1.2-3,2.3-4.3c1-1.2,2.3-2.1,3.8-2.8c1.5-0.7,3.1-1,4.7-1
				c2.1,0,4.1,0.6,5.9,1.9V14.1z M-173.3,29.7c0.1-0.5,0.2-1.5,0.2-3c0-1.5-0.1-2.6-0.2-3.1c-0.2-0.9-0.6-1.6-1.2-2.3
				c-1.2-1.4-2.8-2.1-4.6-2.1c-1.9,0-3.4,0.7-4.6,2.1c-0.6,0.7-1,1.4-1.3,2.3c-0.1,0.3-0.1,0.5-0.1,0.6c-0.1,0.4-0.1,1.2-0.1,2.4
				c0,1.2,0,2,0.1,2.4c0,0.2,0,0.3,0.1,0.5c0.2,0.9,0.6,1.8,1.3,2.5c1.2,1.4,2.7,2.1,4.6,2.1c1.9,0,3.4-0.7,4.6-2.1
				C-174,31.4-173.6,30.6-173.3,29.7z"/>
			<path id="XMLID_347_" d="M-152.4,14.3c0.8,0,1.6,0,2.4,0.3v5.1c-0.8-0.3-1.6-0.5-2.4-0.5c-1.9,0-3.4,0.7-4.6,2.1
				c-0.6,0.7-1,1.5-1.2,2.3c-0.1,0.2-0.1,0.6-0.1,1V39h-5.2v-25h5.2v2.1C-156.5,14.9-154.6,14.3-152.4,14.3z"/>
			<path id="XMLID_349_" d="M-125.2,23.3c0.1,0.4,0.1,0.8,0.1,1.2l0,3.9c0,0.4-0.1,0.8-0.2,1.2c0,0.4-0.1,0.8-0.3,1.2
				c-0.5,1.6-1.2,3-2.3,4.2c-1,1.2-2.3,2.1-3.8,2.8c-1.5,0.7-3,1-4.6,1c-2.1,0-4.1-0.6-6-1.8v12h-5.2V14.1h5.2v1.6
				c1.8-1.2,3.8-1.9,6-1.9c1.6,0,3.2,0.3,4.7,1s2.8,1.7,3.9,2.9c1,1.2,1.8,2.7,2.2,4.3C-125.3,22.6-125.3,23-125.2,23.3z
				 M-130.3,28.9c0.1-0.4,0.1-1.2,0.1-2.4c0-1.2,0-2-0.1-2.5c0-0.1-0.1-0.3-0.1-0.5c-0.2-0.9-0.7-1.7-1.3-2.5
				c-1.2-1.4-2.7-2.1-4.6-2.1c-1.9,0-3.4,0.7-4.6,2.1c-0.6,0.7-1,1.5-1.2,2.4c-0.1,0.5-0.2,1.5-0.2,3c0,1.5,0.1,2.6,0.2,3.1
				c0.2,0.9,0.6,1.6,1.2,2.3c1.2,1.4,2.7,2.2,4.6,2.2c1.8,0,3.4-0.7,4.6-2.2c0.6-0.7,1-1.4,1.2-2.3
				C-130.4,29.3-130.3,29.1-130.3,28.9z"/>
			<path id="XMLID_352_" d="M-108.7,4.1c2.6,0,4.8,0.9,6.6,2.8c1.8,1.9,2.8,4.1,2.8,6.6v2c0,2.6-0.9,4.8-2.8,6.6
				c-1.8,1.8-4,2.8-6.6,2.8h-7.4V39h-5.2v-35H-108.7z M-104.5,15.5v-2c0-1.2-0.4-2.2-1.2-3c-0.8-0.8-1.8-1.2-3-1.2h-7.4v10.4h7.4
				c1.2,0,2.2-0.4,3-1.2C-104.9,17.6-104.5,16.7-104.5,15.5z"/>
			<path id="XMLID_355_" d="M-85.4,14.3c0.8,0,1.6,0,2.5,0.3v5.1c-0.8-0.3-1.6-0.5-2.5-0.5c-1.9,0-3.4,0.7-4.6,2.1
				c-0.6,0.7-1,1.5-1.2,2.3c-0.1,0.2-0.1,0.6-0.2,1V39h-5.1v-25h5.1v2.1C-89.5,14.9-87.5,14.3-85.4,14.3z"/>
			<path id="XMLID_357_" d="M-77.9,17.2c2.2-2.2,4.8-3.3,7.9-3.3c3.1,0,5.7,1.1,7.9,3.3c2.2,2.2,3.3,4.8,3.3,7.9v3.2
				c0,2.5-0.8,4.7-2.3,6.7c-1.5,2-3.4,3.3-5.8,4c-1,0.3-2.1,0.5-3.2,0.5c-1.1,0-2.2-0.2-3.2-0.5c-2.3-0.7-4.3-2-5.8-4
				c-1.5-2-2.3-4.2-2.3-6.7v-3.2C-81.2,22-80.1,19.3-77.9,17.2z M-63.9,28.3v-3.2c0-1.7-0.6-3.1-1.8-4.3c-1.2-1.2-2.6-1.8-4.3-1.8
				c-1.7,0-3.1,0.6-4.3,1.8c-1.2,1.2-1.8,2.6-1.8,4.3v3.2c0,1.7,0.6,3.1,1.8,4.3c1.2,1.2,2.6,1.8,4.3,1.8c1.7,0,3.1-0.6,4.3-1.8
				C-64.5,31.4-63.9,30-63.9,28.3z"/>
			<path id="XMLID_360_" d="M-35.5,14.1l-7.8,13.7l7.4,11.3H-42l-4.6-7l-4.3,7h-6l7.2-11.8L-57,14.1h5.9l4.8,8.7l5-8.7H-35.5z"/>
			<path id="XMLID_362_" d="M-11.4,14.1v23.3c0,3.1-1.1,5.8-3.4,8c-2.2,2.2-4.9,3.3-8,3.3c-1.6,0-3.1-0.2-4.6-0.7
				c-1.4-0.4-2.7-1-4-1.9l2.8-4.3c0.8,0.6,1.7,1,2.7,1.3c1,0.3,2,0.5,3.1,0.5c1.7,0,3.2-0.6,4.4-1.8s1.8-2.7,1.8-4.4v-0.2
				c-1.5,1-3.2,1.6-5,1.8c-0.4,0-0.7,0-1,0c-0.4,0-0.8,0-1.2,0c-2.7-0.3-5-1.5-7-3.8c-0.5-0.6-0.9-1.2-1.3-1.9
				c-0.4-0.8-0.8-1.6-1-2.4c-0.1-0.5-0.2-0.9-0.3-1.2c-0.1-0.4-0.1-0.8-0.2-1.2V14.1h5.2c0,0.7,0,3.2,0,7.5c0,4.3,0,6.8,0.1,7.5
				c0,0.2,0,0.4,0.1,0.7c0.2,0.9,0.6,1.7,1.2,2.3c1.2,1.4,2.7,2.1,4.3,2.1c1.8,0,3.4-0.7,4.6-2.1c0.6-0.7,1-1.5,1.2-2.3
				c0.1-0.3,0.1-0.7,0.1-1.1V14.1H-11.4z"/>
		</g>
		<g id="XMLID_2_">
			<path id="XMLID_3_" d="M-299.7,40.6c-5.6,0-10.3-2.3-14.1-7c-0.7-0.9-1.2-1.7-1.5-2.4c-0.5-0.8-0.9-1.9-1.3-3.2
				c-0.5-1.6-0.7-3.8-0.7-6.6V5.4h7.1v16.7c0,5.6,2.5,9.3,7.6,11.2c1.1,0.3,2.1,0.5,3,0.5c0.9,0,1.9-0.2,3.1-0.5
				c5.1-1.9,7.6-5.6,7.6-11.2V5.4h7.1v15.9c0,2.8-0.2,5-0.7,6.6c-0.4,1.4-0.8,2.4-1.3,3.2c-0.3,0.7-0.8,1.5-1.5,2.4
				C-289.4,38.3-294.1,40.6-299.7,40.6z M-303.2,5.4h7v18.1h-7V5.4z"/>
			<path id="XMLID_7_" d="M-278.3,5.4h19.6c7.1,0,12,3.1,14.8,9.3c0.7,1.7,1,3.6,1,5.6c0,4.1-1.6,7.7-4.8,10.8
				c-2,1.8-4.4,2.9-7.3,3.6c-1,0.1-2.1,0.2-3.4,0.2l-12.8,0.1v5.5h-7.1V28.1h19.3c2.5,0,4.4-0.5,5.5-1.4c1.5-1,2.6-2.5,3.2-4.6
				c0.1-0.6,0.2-1.1,0.2-1.5v-0.7c0-1.8-0.8-3.6-2.4-5.4c-1.6-1.4-3.5-2.2-5.5-2.2h-20.4V5.4z"/>
		</g>
	</g>
</g>
<g id="Layer_2" class="st0">
	<g id="XMLID_75_" class="st1">
		<g>
			<path id="XMLID_409_" class="st2" d="M-202.3,98.3l4.8-27.7h5.3l-6.1,35h-7.8l-3-16.3l-3.1,16.3h-7.8l-6.1-35h5.2l4.8,27.7
				l3.9-20.5h6.1L-202.3,98.3z"/>
			<path id="XMLID_411_" class="st2" d="M-173.2,80.6h5.1v25h-5.1v-1.6c-1.1,0.7-2.4,1.3-3.7,1.6c-0.7,0.2-1.5,0.3-2.3,0.3
				c-0.9,0-1.7-0.1-2.6-0.3c-2.4-0.6-4.4-1.8-6-3.7c-1.1-1.3-1.8-2.7-2.3-4.3c-0.1-0.5-0.2-0.9-0.3-1.2c-0.1-0.4-0.1-0.8-0.1-1.2v-4
				c0-0.4,0.1-0.8,0.2-1.2c0.1-0.4,0.1-0.8,0.3-1.2c0.5-1.6,1.2-3,2.3-4.3c1-1.2,2.3-2.1,3.8-2.8c1.5-0.7,3.1-1,4.7-1
				c2.1,0,4.1,0.6,5.9,1.8V80.6z M-173.3,96.2c0.1-0.5,0.2-1.5,0.2-3c0-1.5-0.1-2.6-0.2-3.1c-0.2-0.9-0.6-1.6-1.2-2.3
				c-1.2-1.4-2.8-2.2-4.6-2.2c-1.9,0-3.4,0.7-4.6,2.2c-0.6,0.7-1,1.4-1.3,2.3c-0.1,0.3-0.1,0.5-0.1,0.7c-0.1,0.4-0.1,1.2-0.1,2.4
				c0,1.2,0,2,0.1,2.4c0,0.2,0,0.3,0.1,0.5c0.2,0.9,0.6,1.8,1.3,2.5c1.2,1.4,2.7,2.1,4.6,2.1c1.9,0,3.4-0.7,4.6-2.1
				C-174,97.9-173.6,97.1-173.3,96.2z"/>
			<path id="XMLID_414_" class="st2" d="M-152.4,80.8c0.8,0,1.6,0,2.4,0.3v5.1c-0.8-0.3-1.6-0.5-2.4-0.5c-1.9,0-3.4,0.7-4.6,2.2
				c-0.6,0.7-1,1.5-1.2,2.3c-0.1,0.2-0.1,0.6-0.1,1v14.4h-5.2v-25h5.2v2C-156.5,81.4-154.6,80.8-152.4,80.8z"/>
			<path id="XMLID_416_" class="st2" d="M-125.2,89.8c0.1,0.4,0.1,0.8,0.1,1.2l0,3.9c0,0.4-0.1,0.8-0.2,1.2c0,0.4-0.1,0.8-0.3,1.2
				c-0.5,1.6-1.2,3-2.3,4.3c-1,1.2-2.3,2.1-3.8,2.8c-1.5,0.7-3,1-4.6,1c-2.1,0-4.1-0.6-6-1.8v12h-5.2V80.6h5.2v1.6
				c1.8-1.2,3.8-1.9,6-1.9c1.6,0,3.2,0.3,4.7,1s2.8,1.7,3.9,2.9c1,1.2,1.8,2.7,2.2,4.3C-125.3,89.1-125.3,89.5-125.2,89.8z
				 M-130.3,95.4c0.1-0.4,0.1-1.2,0.1-2.4c0-1.2,0-2-0.1-2.5c0-0.1-0.1-0.3-0.1-0.5c-0.2-0.9-0.7-1.7-1.3-2.5
				c-1.2-1.4-2.7-2.1-4.6-2.1c-1.9,0-3.4,0.7-4.6,2.1c-0.6,0.7-1,1.5-1.2,2.3c-0.1,0.5-0.2,1.5-0.2,3c0,1.5,0.1,2.6,0.2,3.1
				c0.2,0.9,0.6,1.6,1.2,2.3c1.2,1.4,2.7,2.2,4.6,2.2c1.8,0,3.4-0.7,4.6-2.2c0.6-0.7,1-1.4,1.2-2.3
				C-130.4,95.8-130.3,95.6-130.3,95.4z"/>
			<path id="XMLID_419_" class="st2" d="M-108.7,70.6c2.6,0,4.8,0.9,6.6,2.8c1.8,1.9,2.8,4.1,2.8,6.7v2c0,2.6-0.9,4.8-2.8,6.6
				c-1.8,1.8-4,2.8-6.6,2.8h-7.4v14.2h-5.2v-35H-108.7z M-104.5,82v-2c0-1.2-0.4-2.2-1.2-3c-0.8-0.8-1.8-1.2-3-1.2h-7.4v10.3h7.4
				c1.2,0,2.2-0.4,3-1.2C-104.9,84.1-104.5,83.2-104.5,82z"/>
			<path id="XMLID_422_" class="st2" d="M-85.4,80.8c0.8,0,1.6,0,2.5,0.3v5.1c-0.8-0.3-1.6-0.5-2.5-0.5c-1.9,0-3.4,0.7-4.6,2.2
				c-0.6,0.7-1,1.5-1.2,2.3c-0.1,0.2-0.1,0.6-0.2,1v14.4h-5.1v-25h5.1v2C-89.5,81.4-87.5,80.8-85.4,80.8z"/>
			<path id="XMLID_424_" class="st2" d="M-77.9,83.7c2.2-2.2,4.8-3.3,7.9-3.3c3.1,0,5.7,1.1,7.9,3.3c2.2,2.2,3.3,4.8,3.3,7.9v3.2
				c0,2.5-0.8,4.7-2.3,6.7c-1.5,2-3.4,3.3-5.8,4c-1,0.3-2.1,0.5-3.2,0.5c-1.1,0-2.2-0.2-3.2-0.5c-2.3-0.7-4.3-2-5.8-4
				c-1.5-2-2.3-4.2-2.3-6.7v-3.2C-81.2,88.5-80.1,85.8-77.9,83.7z M-63.9,94.8v-3.2c0-1.7-0.6-3.1-1.8-4.3c-1.2-1.2-2.6-1.8-4.3-1.8
				c-1.7,0-3.1,0.6-4.3,1.8c-1.2,1.2-1.8,2.6-1.8,4.3v3.2c0,1.7,0.6,3.1,1.8,4.3c1.2,1.2,2.6,1.8,4.3,1.8c1.7,0,3.1-0.6,4.3-1.8
				C-64.5,97.9-63.9,96.5-63.9,94.8z"/>
			<path id="XMLID_427_" class="st2" d="M-35.5,80.6l-7.8,13.7l7.4,11.3H-42l-4.6-7l-4.3,7h-6l7.2-11.8L-57,80.6h5.9l4.8,8.7l5-8.7
				H-35.5z"/>
			<path id="XMLID_429_" class="st2" d="M-11.4,80.6v23.3c0,3.1-1.1,5.8-3.4,8c-2.2,2.2-4.9,3.3-8,3.3c-1.6,0-3.1-0.2-4.6-0.7
				c-1.4-0.4-2.7-1-4-1.9l2.8-4.3c0.8,0.6,1.7,1,2.7,1.3c1,0.3,2,0.5,3.1,0.5c1.7,0,3.2-0.6,4.4-1.8s1.8-2.7,1.8-4.4v-0.2
				c-1.5,1-3.2,1.6-5,1.8c-0.4,0-0.7,0-1,0c-0.4,0-0.8,0-1.2,0c-2.7-0.3-5-1.5-7-3.8c-0.5-0.6-0.9-1.2-1.3-1.9
				c-0.4-0.8-0.8-1.6-1-2.4c-0.1-0.5-0.2-0.9-0.3-1.2c-0.1-0.4-0.1-0.8-0.2-1.2V80.6h5.2c0,0.7,0,3.2,0,7.5c0,4.3,0,6.8,0.1,7.5
				c0,0.2,0,0.4,0.1,0.7c0.2,0.9,0.6,1.7,1.2,2.3c1.2,1.4,2.7,2.1,4.3,2.1c1.8,0,3.4-0.7,4.6-2.1c0.6-0.7,1-1.5,1.2-2.3
				c0.1-0.3,0.1-0.7,0.1-1.1V80.6H-11.4z"/>
		</g>
		<g id="XMLID_82_">
			<path id="XMLID_364_" class="st2" d="M-202.3,98.3l4.8-27.7h5.3l-6.1,35h-7.8l-3-16.3l-3.1,16.3h-7.8l-6.1-35h5.2l4.8,27.7
				l3.9-20.5h6.1L-202.3,98.3z"/>
			<path id="XMLID_366_" class="st2" d="M-173.2,80.6h5.1v25h-5.1v-1.6c-1.1,0.7-2.4,1.3-3.7,1.6c-0.7,0.2-1.5,0.3-2.3,0.3
				c-0.9,0-1.7-0.1-2.6-0.3c-2.4-0.6-4.4-1.8-6-3.7c-1.1-1.3-1.8-2.7-2.3-4.3c-0.1-0.5-0.2-0.9-0.3-1.2c-0.1-0.4-0.1-0.8-0.1-1.2v-4
				c0-0.4,0.1-0.8,0.2-1.2c0.1-0.4,0.1-0.8,0.3-1.2c0.5-1.6,1.2-3,2.3-4.3c1-1.2,2.3-2.1,3.8-2.8c1.5-0.7,3.1-1,4.7-1
				c2.1,0,4.1,0.6,5.9,1.8V80.6z M-173.3,96.2c0.1-0.5,0.2-1.5,0.2-3c0-1.5-0.1-2.6-0.2-3.1c-0.2-0.9-0.6-1.6-1.2-2.3
				c-1.2-1.4-2.8-2.2-4.6-2.2c-1.9,0-3.4,0.7-4.6,2.2c-0.6,0.7-1,1.4-1.3,2.3c-0.1,0.3-0.1,0.5-0.1,0.7c-0.1,0.4-0.1,1.2-0.1,2.4
				c0,1.2,0,2,0.1,2.4c0,0.2,0,0.3,0.1,0.5c0.2,0.9,0.6,1.8,1.3,2.5c1.2,1.4,2.7,2.1,4.6,2.1c1.9,0,3.4-0.7,4.6-2.1
				C-174,97.9-173.6,97.1-173.3,96.2z"/>
			<path id="XMLID_369_" class="st2" d="M-152.4,80.8c0.8,0,1.6,0,2.4,0.3v5.1c-0.8-0.3-1.6-0.5-2.4-0.5c-1.9,0-3.4,0.7-4.6,2.2
				c-0.6,0.7-1,1.5-1.2,2.3c-0.1,0.2-0.1,0.6-0.1,1v14.4h-5.2v-25h5.2v2C-156.5,81.4-154.6,80.8-152.4,80.8z"/>
			<path id="XMLID_371_" class="st2" d="M-125.2,89.8c0.1,0.4,0.1,0.8,0.1,1.2l0,3.9c0,0.4-0.1,0.8-0.2,1.2c0,0.4-0.1,0.8-0.3,1.2
				c-0.5,1.6-1.2,3-2.3,4.3c-1,1.2-2.3,2.1-3.8,2.8c-1.5,0.7-3,1-4.6,1c-2.1,0-4.1-0.6-6-1.8v12h-5.2V80.6h5.2v1.6
				c1.8-1.2,3.8-1.9,6-1.9c1.6,0,3.2,0.3,4.7,1s2.8,1.7,3.9,2.9c1,1.2,1.8,2.7,2.2,4.3C-125.3,89.1-125.3,89.5-125.2,89.8z
				 M-130.3,95.4c0.1-0.4,0.1-1.2,0.1-2.4c0-1.2,0-2-0.1-2.5c0-0.1-0.1-0.3-0.1-0.5c-0.2-0.9-0.7-1.7-1.3-2.5
				c-1.2-1.4-2.7-2.1-4.6-2.1c-1.9,0-3.4,0.7-4.6,2.1c-0.6,0.7-1,1.5-1.2,2.3c-0.1,0.5-0.2,1.5-0.2,3c0,1.5,0.1,2.6,0.2,3.1
				c0.2,0.9,0.6,1.6,1.2,2.3c1.2,1.4,2.7,2.2,4.6,2.2c1.8,0,3.4-0.7,4.6-2.2c0.6-0.7,1-1.4,1.2-2.3
				C-130.4,95.8-130.3,95.6-130.3,95.4z"/>
			<path id="XMLID_374_" class="st2" d="M-108.7,70.6c2.6,0,4.8,0.9,6.6,2.8c1.8,1.9,2.8,4.1,2.8,6.7v2c0,2.6-0.9,4.8-2.8,6.6
				c-1.8,1.8-4,2.8-6.6,2.8h-7.4v14.2h-5.2v-35H-108.7z M-104.5,82v-2c0-1.2-0.4-2.2-1.2-3c-0.8-0.8-1.8-1.2-3-1.2h-7.4v10.3h7.4
				c1.2,0,2.2-0.4,3-1.2C-104.9,84.1-104.5,83.2-104.5,82z"/>
			<path id="XMLID_377_" class="st2" d="M-85.4,80.8c0.8,0,1.6,0,2.5,0.3v5.1c-0.8-0.3-1.6-0.5-2.5-0.5c-1.9,0-3.4,0.7-4.6,2.2
				c-0.6,0.7-1,1.5-1.2,2.3c-0.1,0.2-0.1,0.6-0.2,1v14.4h-5.1v-25h5.1v2C-89.5,81.4-87.5,80.8-85.4,80.8z"/>
			<path id="XMLID_379_" class="st2" d="M-77.9,83.7c2.2-2.2,4.8-3.3,7.9-3.3c3.1,0,5.7,1.1,7.9,3.3c2.2,2.2,3.3,4.8,3.3,7.9v3.2
				c0,2.5-0.8,4.7-2.3,6.7c-1.5,2-3.4,3.3-5.8,4c-1,0.3-2.1,0.5-3.2,0.5c-1.1,0-2.2-0.2-3.2-0.5c-2.3-0.7-4.3-2-5.8-4
				c-1.5-2-2.3-4.2-2.3-6.7v-3.2C-81.2,88.5-80.1,85.8-77.9,83.7z M-63.9,94.8v-3.2c0-1.7-0.6-3.1-1.8-4.3c-1.2-1.2-2.6-1.8-4.3-1.8
				c-1.7,0-3.1,0.6-4.3,1.8c-1.2,1.2-1.8,2.6-1.8,4.3v3.2c0,1.7,0.6,3.1,1.8,4.3c1.2,1.2,2.6,1.8,4.3,1.8c1.7,0,3.1-0.6,4.3-1.8
				C-64.5,97.9-63.9,96.5-63.9,94.8z"/>
			<path id="XMLID_382_" class="st2" d="M-35.5,80.6l-7.8,13.7l7.4,11.3H-42l-4.6-7l-4.3,7h-6l7.2-11.8L-57,80.6h5.9l4.8,8.7l5-8.7
				H-35.5z"/>
			<path id="XMLID_384_" class="st2" d="M-11.4,80.6v23.3c0,3.1-1.1,5.8-3.4,8c-2.2,2.2-4.9,3.3-8,3.3c-1.6,0-3.1-0.2-4.6-0.7
				c-1.4-0.4-2.7-1-4-1.9l2.8-4.3c0.8,0.6,1.7,1,2.7,1.3c1,0.3,2,0.5,3.1,0.5c1.7,0,3.2-0.6,4.4-1.8s1.8-2.7,1.8-4.4v-0.2
				c-1.5,1-3.2,1.6-5,1.8c-0.4,0-0.7,0-1,0c-0.4,0-0.8,0-1.2,0c-2.7-0.3-5-1.5-7-3.8c-0.5-0.6-0.9-1.2-1.3-1.9
				c-0.4-0.8-0.8-1.6-1-2.4c-0.1-0.5-0.2-0.9-0.3-1.2c-0.1-0.4-0.1-0.8-0.2-1.2V80.6h5.2c0,0.7,0,3.2,0,7.5c0,4.3,0,6.8,0.1,7.5
				c0,0.2,0,0.4,0.1,0.7c0.2,0.9,0.6,1.7,1.2,2.3c1.2,1.4,2.7,2.1,4.3,2.1c1.8,0,3.4-0.7,4.6-2.1c0.6-0.7,1-1.5,1.2-2.3
				c0.1-0.3,0.1-0.7,0.1-1.1V80.6H-11.4z"/>
		</g>
		<g id="XMLID_76_">
			<path id="XMLID_79_" class="st2" d="M-299.7,107.1c-5.6,0-10.3-2.3-14.1-7c-0.7-0.9-1.2-1.7-1.5-2.4c-0.5-0.8-0.9-1.9-1.3-3.2
				c-0.5-1.6-0.7-3.8-0.7-6.6V71.9h7.1v16.7c0,5.6,2.5,9.3,7.6,11.2c1.1,0.3,2.1,0.5,3,0.5c0.9,0,1.9-0.2,3.1-0.5
				c5.1-1.9,7.6-5.6,7.6-11.2V71.9h7.1v15.9c0,2.8-0.2,5-0.7,6.6c-0.4,1.4-0.8,2.4-1.3,3.2c-0.3,0.7-0.8,1.5-1.5,2.4
				C-289.4,104.8-294.1,107.1-299.7,107.1z M-303.2,71.9h7v18.1h-7V71.9z"/>
			<path id="XMLID_77_" class="st2" d="M-278.3,71.9h19.6c7.1,0,12,3.1,14.8,9.3c0.7,1.7,1,3.6,1,5.6c0,4.1-1.6,7.7-4.8,10.8
				c-2,1.8-4.4,2.9-7.3,3.6c-1,0.1-2.1,0.2-3.4,0.2l-12.8,0.1v5.5h-7.1V94.6h19.3c2.5,0,4.4-0.5,5.5-1.4c1.5-1,2.6-2.5,3.2-4.6
				c0.1-0.6,0.2-1.1,0.2-1.5v-0.7c0-1.8-0.8-3.6-2.4-5.4c-1.6-1.4-3.5-2.2-5.5-2.2h-20.4V71.9z"/>
		</g>
	</g>
</g>
<g id="Layer_3">
	<g id="XMLID_162_">
		<path id="XMLID_165_" d="M22.4,43.6c-5.6,0-10.3-2.3-14.1-7c-0.7-0.9-1.2-1.7-1.5-2.4c-0.5-0.8-0.9-1.9-1.3-3.2
			c-0.5-1.6-0.7-3.8-0.7-6.6V8.4h7.1v16.7c0,5.6,2.5,9.3,7.6,11.2c1.1,0.3,2.1,0.5,3,0.5c0.9,0,1.9-0.2,3.1-0.5
			c5.1-1.9,7.6-5.6,7.6-11.2V8.4h7.1v15.9c0,2.8-0.2,5-0.7,6.6c-0.4,1.4-0.8,2.4-1.3,3.2c-0.3,0.7-0.8,1.5-1.5,2.4
			C32.7,41.3,28,43.6,22.4,43.6z M18.9,8.4h7v18.1h-7V8.4z"/>
		<path id="XMLID_163_" d="M43.8,8.4h19.6c7.1,0,12,3.1,14.8,9.3c0.7,1.7,1,3.6,1,5.6c0,4.1-1.6,7.7-4.8,10.8
			c-2,1.8-4.4,2.9-7.3,3.6c-1,0.1-2.1,0.2-3.4,0.2l-12.8,0.1v5.5h-7.1V31.1h19.3c2.5,0,4.4-0.5,5.5-1.4c1.5-1,2.6-2.5,3.2-4.6
			c0.1-0.6,0.2-1.1,0.2-1.5v-0.7c0-1.8-0.8-3.6-2.4-5.4c-1.6-1.4-3.5-2.2-5.5-2.2H43.8V8.4z"/>
	</g>
</g>
<g id="Layer_4" class="st0">
	<g id="XMLID_219_" class="st1">
		<path id="XMLID_222_" class="st2" d="M22.4,110.1c-5.6,0-10.3-2.3-14.1-7c-0.7-0.9-1.2-1.7-1.5-2.4c-0.5-0.8-0.9-1.9-1.3-3.2
			c-0.5-1.6-0.7-3.8-0.7-6.6V74.9h7.1v16.7c0,5.6,2.5,9.3,7.6,11.2c1.1,0.3,2.1,0.5,3,0.5c0.9,0,1.9-0.2,3.1-0.5
			c5.1-1.9,7.6-5.6,7.6-11.2V74.9h7.1v15.9c0,2.8-0.2,5-0.7,6.6c-0.4,1.4-0.8,2.4-1.3,3.2c-0.3,0.7-0.8,1.5-1.5,2.4
			C32.7,107.8,28,110.1,22.4,110.1z M18.9,74.9h7v18.1h-7V74.9z"/>
		<path id="XMLID_220_" class="st2" d="M43.8,74.9h19.6c7.1,0,12,3.1,14.8,9.3c0.7,1.7,1,3.6,1,5.6c0,4.1-1.6,7.7-4.8,10.8
			c-2,1.8-4.4,2.9-7.3,3.6c-1,0.1-2.1,0.2-3.4,0.2l-12.8,0.1v5.5h-7.1V97.6h19.3c2.5,0,4.4-0.5,5.5-1.4c1.5-1,2.6-2.5,3.2-4.6
			c0.1-0.6,0.2-1.1,0.2-1.5v-0.7c0-1.8-0.8-3.6-2.4-5.4c-1.6-1.4-3.5-2.2-5.5-2.2H43.8V74.9z"/>
	</g>
</g>
</svg>
