<?xml version="1.0" encoding="utf-8"?>
<!-- Generator: Adobe Illustrator 19.0.0, SVG Export Plug-In . SVG Version: 6.00 Build 0)  -->
<svg version="1.1" xmlns="http://www.w3.org/2000/svg" xmlns:xlink="http://www.w3.org/1999/xlink" x="0px" y="0px"
	 viewBox="0 0 310.8 52.1" style="enable-background:new 0 0 310.8 52.1;" xml:space="preserve">
<style type="text/css">
	.st0{display:none;}
	.st1{display:inline;}
	.st2{fill:#FFFFFF;}
</style>
<g id="Layer_1" class="st0">
	<g id="XMLID_4_" class="st1">
		<g>
			<path id="XMLID_449_" d="M117.7-34.7l4.8-27.7h5.3l-6.1,35h-7.8l-3-16.3l-3.1,16.3h-7.8l-6.1-35h5.2l4.8,27.7l3.9-20.5h6.1
				L117.7-34.7z"/>
			<path id="XMLID_451_" d="M146.8-52.4h5.1v25h-5.1v-1.6c-1.1,0.7-2.4,1.3-3.7,1.6c-0.7,0.2-1.5,0.3-2.3,0.3
				c-0.9,0-1.7-0.1-2.6-0.3c-2.4-0.6-4.4-1.8-6-3.7c-1.1-1.3-1.8-2.7-2.3-4.3c-0.1-0.5-0.2-0.9-0.3-1.2c-0.1-0.4-0.1-0.8-0.1-1.2v-4
				c0-0.4,0.1-0.8,0.2-1.2c0.1-0.4,0.1-0.8,0.3-1.2c0.5-1.6,1.2-3,2.3-4.3c1-1.2,2.3-2.1,3.8-2.8c1.5-0.7,3.1-1,4.7-1
				c2.1,0,4.1,0.6,5.9,1.9V-52.4z M146.7-36.8c0.1-0.5,0.2-1.5,0.2-3c0-1.5-0.1-2.6-0.2-3.1c-0.2-0.9-0.6-1.6-1.2-2.3
				c-1.2-1.4-2.8-2.1-4.6-2.1c-1.9,0-3.4,0.7-4.6,2.1c-0.6,0.7-1,1.4-1.3,2.3c-0.1,0.3-0.1,0.5-0.1,0.6c-0.1,0.4-0.1,1.2-0.1,2.4
				c0,1.2,0,2,0.1,2.4c0,0.2,0,0.3,0.1,0.5c0.2,0.9,0.6,1.8,1.3,2.5c1.2,1.4,2.7,2.1,4.6,2.1c1.9,0,3.4-0.7,4.6-2.1
				C146-35.1,146.4-35.9,146.7-36.8z"/>
			<path id="XMLID_454_" d="M167.6-52.2c0.8,0,1.6,0,2.4,0.3v5.1c-0.8-0.3-1.6-0.5-2.4-0.5c-1.9,0-3.4,0.7-4.6,2.1
				c-0.6,0.7-1,1.5-1.2,2.3c-0.1,0.2-0.1,0.6-0.1,1v14.4h-5.2v-25h5.2v2.1C163.5-51.6,165.4-52.2,167.6-52.2z"/>
			<path id="XMLID_456_" d="M194.8-43.2c0.1,0.4,0.1,0.8,0.1,1.2l0,3.9c0,0.4-0.1,0.8-0.2,1.2c0,0.4-0.1,0.8-0.3,1.2
				c-0.5,1.6-1.2,3-2.3,4.3c-1,1.2-2.3,2.1-3.8,2.8c-1.5,0.7-3,1-4.6,1c-2.1,0-4.1-0.6-6-1.8v12h-5.2v-34.9h5.2v1.6
				c1.8-1.2,3.8-1.9,6-1.9c1.6,0,3.2,0.3,4.7,1s2.8,1.7,3.9,2.9c1,1.2,1.8,2.7,2.2,4.3C194.7-43.9,194.7-43.5,194.8-43.2z
				 M189.7-37.6c0.1-0.4,0.1-1.2,0.1-2.4c0-1.2,0-2-0.1-2.5c0-0.1-0.1-0.3-0.1-0.5c-0.2-0.9-0.7-1.7-1.3-2.5
				c-1.2-1.4-2.7-2.1-4.6-2.1c-1.9,0-3.4,0.7-4.6,2.1c-0.6,0.7-1,1.5-1.2,2.4c-0.1,0.5-0.2,1.5-0.2,3c0,1.5,0.1,2.6,0.2,3.1
				c0.2,0.9,0.6,1.6,1.2,2.3c1.2,1.4,2.7,2.2,4.6,2.2c1.8,0,3.4-0.7,4.6-2.2c0.6-0.7,1-1.4,1.2-2.3
				C189.6-37.2,189.7-37.4,189.7-37.6z"/>
			<path id="XMLID_459_" d="M211.3-62.4c2.6,0,4.8,0.9,6.6,2.8c1.8,1.9,2.8,4.1,2.8,6.6v2c0,2.6-0.9,4.8-2.8,6.6
				c-1.8,1.8-4,2.8-6.6,2.8h-7.4v14.2h-5.2v-35H211.3z M215.5-51v-2c0-1.2-0.4-2.2-1.2-3c-0.8-0.8-1.8-1.2-3-1.2h-7.4v10.4h7.4
				c1.2,0,2.2-0.4,3-1.2C215.1-48.9,215.5-49.8,215.5-51z"/>
			<path id="XMLID_462_" d="M234.6-52.2c0.8,0,1.6,0,2.5,0.3v5.1c-0.8-0.3-1.6-0.5-2.5-0.5c-1.9,0-3.4,0.7-4.6,2.1
				c-0.6,0.7-1,1.5-1.2,2.3c-0.1,0.2-0.1,0.6-0.2,1v14.4h-5.1v-25h5.1v2.1C230.5-51.6,232.5-52.2,234.6-52.2z"/>
			<path id="XMLID_464_" d="M242.1-49.3c2.2-2.2,4.8-3.3,7.9-3.3c3.1,0,5.7,1.1,7.9,3.3c2.2,2.2,3.3,4.8,3.3,7.9v3.2
				c0,2.5-0.8,4.7-2.3,6.7c-1.5,2-3.4,3.3-5.8,4c-1,0.3-2.1,0.5-3.2,0.5c-1.1,0-2.2-0.2-3.2-0.5c-2.3-0.7-4.3-2-5.8-4
				c-1.5-2-2.3-4.2-2.3-6.7v-3.2C238.8-44.5,239.9-47.2,242.1-49.3z M256.1-38.2v-3.2c0-1.7-0.6-3.1-1.8-4.3
				c-1.2-1.2-2.6-1.8-4.3-1.8c-1.7,0-3.1,0.6-4.3,1.8c-1.2,1.2-1.8,2.6-1.8,4.3v3.2c0,1.7,0.6,3.1,1.8,4.3c1.2,1.2,2.6,1.8,4.3,1.8
				c1.7,0,3.1-0.6,4.3-1.8C255.5-35.1,256.1-36.5,256.1-38.2z"/>
			<path id="XMLID_467_" d="M284.5-52.4l-7.8,13.7l7.4,11.3H278l-4.6-7l-4.3,7h-6l7.2-11.8L263-52.4h5.9l4.8,8.7l5-8.7H284.5z"/>
			<path id="XMLID_469_" d="M308.6-52.4v23.3c0,3.1-1.1,5.8-3.4,8c-2.2,2.2-4.9,3.3-8,3.3c-1.6,0-3.1-0.2-4.6-0.7
				c-1.4-0.4-2.7-1-4-1.9l2.8-4.3c0.8,0.6,1.7,1,2.7,1.3c1,0.3,2,0.5,3.1,0.5c1.7,0,3.2-0.6,4.4-1.8s1.8-2.7,1.8-4.4v-0.2
				c-1.5,1-3.2,1.6-5,1.8c-0.4,0-0.7,0-1,0c-0.4,0-0.8,0-1.2,0c-2.7-0.3-5-1.5-7-3.8c-0.5-0.6-0.9-1.2-1.3-1.9
				c-0.4-0.8-0.8-1.6-1-2.4c-0.1-0.5-0.2-0.9-0.3-1.2c-0.1-0.4-0.1-0.8-0.2-1.2v-14.6h5.2c0,0.7,0,3.2,0,7.5c0,4.3,0,6.8,0.1,7.5
				c0,0.2,0,0.4,0.1,0.7c0.2,0.9,0.6,1.7,1.2,2.3c1.2,1.4,2.7,2.1,4.3,2.1c1.8,0,3.4-0.7,4.6-2.1c0.6-0.7,1-1.5,1.2-2.3
				c0.1-0.3,0.1-0.7,0.1-1.1v-14.6H308.6z"/>
		</g>
		<g id="XMLID_1_">
			<path id="XMLID_381_" d="M117.7-34.7l4.8-27.7h5.3l-6.1,35h-7.8l-3-16.3l-3.1,16.3h-7.8l-6.1-35h5.2l4.8,27.7l3.9-20.5h6.1
				L117.7-34.7z"/>
			<path id="XMLID_383_" d="M146.8-52.4h5.1v25h-5.1v-1.6c-1.1,0.7-2.4,1.3-3.7,1.6c-0.7,0.2-1.5,0.3-2.3,0.3
				c-0.9,0-1.7-0.1-2.6-0.3c-2.4-0.6-4.4-1.8-6-3.7c-1.1-1.3-1.8-2.7-2.3-4.3c-0.1-0.5-0.2-0.9-0.3-1.2c-0.1-0.4-0.1-0.8-0.1-1.2v-4
				c0-0.4,0.1-0.8,0.2-1.2c0.1-0.4,0.1-0.8,0.3-1.2c0.5-1.6,1.2-3,2.3-4.3c1-1.2,2.3-2.1,3.8-2.8c1.5-0.7,3.1-1,4.7-1
				c2.1,0,4.1,0.6,5.9,1.9V-52.4z M146.7-36.8c0.1-0.5,0.2-1.5,0.2-3c0-1.5-0.1-2.6-0.2-3.1c-0.2-0.9-0.6-1.6-1.2-2.3
				c-1.2-1.4-2.8-2.1-4.6-2.1c-1.9,0-3.4,0.7-4.6,2.1c-0.6,0.7-1,1.4-1.3,2.3c-0.1,0.3-0.1,0.5-0.1,0.6c-0.1,0.4-0.1,1.2-0.1,2.4
				c0,1.2,0,2,0.1,2.4c0,0.2,0,0.3,0.1,0.5c0.2,0.9,0.6,1.8,1.3,2.5c1.2,1.4,2.7,2.1,4.6,2.1c1.9,0,3.4-0.7,4.6-2.1
				C146-35.1,146.4-35.9,146.7-36.8z"/>
			<path id="XMLID_386_" d="M167.6-52.2c0.8,0,1.6,0,2.4,0.3v5.1c-0.8-0.3-1.6-0.5-2.4-0.5c-1.9,0-3.4,0.7-4.6,2.1
				c-0.6,0.7-1,1.5-1.2,2.3c-0.1,0.2-0.1,0.6-0.1,1v14.4h-5.2v-25h5.2v2.1C163.5-51.6,165.4-52.2,167.6-52.2z"/>
			<path id="XMLID_388_" d="M194.8-43.2c0.1,0.4,0.1,0.8,0.1,1.2l0,3.9c0,0.4-0.1,0.8-0.2,1.2c0,0.4-0.1,0.8-0.3,1.2
				c-0.5,1.6-1.2,3-2.3,4.3c-1,1.2-2.3,2.1-3.8,2.8c-1.5,0.7-3,1-4.6,1c-2.1,0-4.1-0.6-6-1.8v12h-5.2v-34.9h5.2v1.6
				c1.8-1.2,3.8-1.9,6-1.9c1.6,0,3.2,0.3,4.7,1s2.8,1.7,3.9,2.9c1,1.2,1.8,2.7,2.2,4.3C194.7-43.9,194.7-43.5,194.8-43.2z
				 M189.7-37.6c0.1-0.4,0.1-1.2,0.1-2.4c0-1.2,0-2-0.1-2.5c0-0.1-0.1-0.3-0.1-0.5c-0.2-0.9-0.7-1.7-1.3-2.5
				c-1.2-1.4-2.7-2.1-4.6-2.1c-1.9,0-3.4,0.7-4.6,2.1c-0.6,0.7-1,1.5-1.2,2.4c-0.1,0.5-0.2,1.5-0.2,3c0,1.5,0.1,2.6,0.2,3.1
				c0.2,0.9,0.6,1.6,1.2,2.3c1.2,1.4,2.7,2.2,4.6,2.2c1.8,0,3.4-0.7,4.6-2.2c0.6-0.7,1-1.4,1.2-2.3
				C189.6-37.2,189.7-37.4,189.7-37.6z"/>
			<path id="XMLID_391_" d="M211.3-62.4c2.6,0,4.8,0.9,6.6,2.8c1.8,1.9,2.8,4.1,2.8,6.6v2c0,2.6-0.9,4.8-2.8,6.6
				c-1.8,1.8-4,2.8-6.6,2.8h-7.4v14.2h-5.2v-35H211.3z M215.5-51v-2c0-1.2-0.4-2.2-1.2-3c-0.8-0.8-1.8-1.2-3-1.2h-7.4v10.4h7.4
				c1.2,0,2.2-0.4,3-1.2C215.1-48.9,215.5-49.8,215.5-51z"/>
			<path id="XMLID_394_" d="M234.6-52.2c0.8,0,1.6,0,2.5,0.3v5.1c-0.8-0.3-1.6-0.5-2.5-0.5c-1.9,0-3.4,0.7-4.6,2.1
				c-0.6,0.7-1,1.5-1.2,2.3c-0.1,0.2-0.1,0.6-0.2,1v14.4h-5.1v-25h5.1v2.1C230.5-51.6,232.5-52.2,234.6-52.2z"/>
			<path id="XMLID_396_" d="M242.1-49.3c2.2-2.2,4.8-3.3,7.9-3.3c3.1,0,5.7,1.1,7.9,3.3c2.2,2.2,3.3,4.8,3.3,7.9v3.2
				c0,2.5-0.8,4.7-2.3,6.7c-1.5,2-3.4,3.3-5.8,4c-1,0.3-2.1,0.5-3.2,0.5c-1.1,0-2.2-0.2-3.2-0.5c-2.3-0.7-4.3-2-5.8-4
				c-1.5-2-2.3-4.2-2.3-6.7v-3.2C238.8-44.5,239.9-47.2,242.1-49.3z M256.1-38.2v-3.2c0-1.7-0.6-3.1-1.8-4.3
				c-1.2-1.2-2.6-1.8-4.3-1.8c-1.7,0-3.1,0.6-4.3,1.8c-1.2,1.2-1.8,2.6-1.8,4.3v3.2c0,1.7,0.6,3.1,1.8,4.3c1.2,1.2,2.6,1.8,4.3,1.8
				c1.7,0,3.1-0.6,4.3-1.8C255.5-35.1,256.1-36.5,256.1-38.2z"/>
			<path id="XMLID_399_" d="M284.5-52.4l-7.8,13.7l7.4,11.3H278l-4.6-7l-4.3,7h-6l7.2-11.8L263-52.4h5.9l4.8,8.7l5-8.7H284.5z"/>
			<path id="XMLID_401_" d="M308.6-52.4v23.3c0,3.1-1.1,5.8-3.4,8c-2.2,2.2-4.9,3.3-8,3.3c-1.6,0-3.1-0.2-4.6-0.7
				c-1.4-0.4-2.7-1-4-1.9l2.8-4.3c0.8,0.6,1.7,1,2.7,1.3c1,0.3,2,0.5,3.1,0.5c1.7,0,3.2-0.6,4.4-1.8s1.8-2.7,1.8-4.4v-0.2
				c-1.5,1-3.2,1.6-5,1.8c-0.4,0-0.7,0-1,0c-0.4,0-0.8,0-1.2,0c-2.7-0.3-5-1.5-7-3.8c-0.5-0.6-0.9-1.2-1.3-1.9
				c-0.4-0.8-0.8-1.6-1-2.4c-0.1-0.5-0.2-0.9-0.3-1.2c-0.1-0.4-0.1-0.8-0.2-1.2v-14.6h5.2c0,0.7,0,3.2,0,7.5c0,4.3,0,6.8,0.1,7.5
				c0,0.2,0,0.4,0.1,0.7c0.2,0.9,0.6,1.7,1.2,2.3c1.2,1.4,2.7,2.1,4.3,2.1c1.8,0,3.4-0.7,4.6-2.1c0.6-0.7,1-1.5,1.2-2.3
				c0.1-0.3,0.1-0.7,0.1-1.1v-14.6H308.6z"/>
		</g>
		<g id="XMLID_2_">
			<path id="XMLID_3_" d="M20.3-25.9c-5.6,0-10.3-2.3-14.1-7c-0.7-0.9-1.2-1.7-1.5-2.4c-0.5-0.8-0.9-1.9-1.3-3.2
				c-0.5-1.6-0.7-3.8-0.7-6.6v-15.9h7.1v16.7c0,5.6,2.5,9.3,7.6,11.2c1.1,0.3,2.1,0.5,3,0.5c0.9,0,1.9-0.2,3.1-0.5
				c5.1-1.9,7.6-5.6,7.6-11.2v-16.7H38v15.9c0,2.8-0.2,5-0.7,6.6c-0.4,1.4-0.8,2.4-1.3,3.2c-0.3,0.7-0.8,1.5-1.5,2.4
				C30.6-28.2,25.9-25.9,20.3-25.9z M16.8-61.1h7v18.1h-7V-61.1z"/>
			<path id="XMLID_7_" d="M41.7-61.1h19.6c7.1,0,12,3.1,14.8,9.3c0.7,1.7,1,3.6,1,5.6c0,4.1-1.6,7.7-4.8,10.8
				c-2,1.8-4.4,2.9-7.3,3.6c-1,0.1-2.1,0.2-3.4,0.2l-12.8,0.1v5.5h-7.1v-12.5H61c2.5,0,4.4-0.5,5.5-1.4c1.5-1,2.6-2.5,3.2-4.6
				c0.1-0.6,0.2-1.1,0.2-1.5v-0.7c0-1.8-0.8-3.6-2.4-5.4c-1.6-1.4-3.5-2.2-5.5-2.2H41.7V-61.1z"/>
		</g>
	</g>
</g>
<g id="Layer_2">
	<g id="XMLID_75_">
		<g id="XMLID_448_">
			<path id="XMLID_471_" class="st2" d="M117.7,31.8l4.8-27.7h5.3l-6.1,35h-7.8l-3-16.2L107.7,39h-7.8l-6.1-35h5.2l4.8,27.7
				l3.9-20.5h6.1L117.7,31.8z"/>
			<path id="XMLID_473_" class="st2" d="M146.8,14.1h5.1v25h-5.1v-1.6c-1.1,0.7-2.4,1.3-3.7,1.6c-0.7,0.2-1.5,0.3-2.3,0.3
				c-0.9,0-1.7-0.1-2.6-0.3c-2.4-0.6-4.4-1.8-6-3.7c-1.1-1.3-1.8-2.7-2.3-4.3c-0.1-0.5-0.2-0.9-0.3-1.2c-0.1-0.4-0.1-0.8-0.1-1.2v-4
				c0-0.4,0.1-0.8,0.2-1.2c0.1-0.4,0.1-0.8,0.3-1.2c0.5-1.6,1.2-3,2.3-4.3c1-1.2,2.3-2.1,3.8-2.8c1.5-0.7,3.1-1,4.7-1
				c2.1,0,4.1,0.6,5.9,1.8V14.1z M146.7,29.7c0.1-0.5,0.2-1.5,0.2-3c0-1.5-0.1-2.6-0.2-3.1c-0.2-0.9-0.6-1.6-1.2-2.3
				c-1.2-1.4-2.8-2.2-4.6-2.2c-1.9,0-3.4,0.7-4.6,2.2c-0.6,0.7-1,1.4-1.3,2.3c-0.1,0.3-0.1,0.5-0.1,0.7c-0.1,0.4-0.1,1.2-0.1,2.4
				c0,1.2,0,2,0.1,2.4c0,0.2,0,0.3,0.1,0.5c0.2,0.9,0.6,1.8,1.3,2.5c1.2,1.4,2.7,2.1,4.6,2.1c1.9,0,3.4-0.7,4.6-2.1
				C146,31.4,146.4,30.6,146.7,29.7z"/>
			<path id="XMLID_476_" class="st2" d="M167.6,14.3c0.8,0,1.6,0,2.4,0.3v5.1c-0.8-0.3-1.6-0.5-2.4-0.5c-1.9,0-3.4,0.7-4.6,2.2
				c-0.6,0.7-1,1.5-1.2,2.3c-0.1,0.2-0.1,0.6-0.1,1V39h-5.2v-25h5.2v2C163.5,14.9,165.4,14.3,167.6,14.3z"/>
			<path id="XMLID_478_" class="st2" d="M194.8,23.3c0.1,0.4,0.1,0.8,0.1,1.2l0,3.9c0,0.4-0.1,0.8-0.2,1.2c0,0.4-0.1,0.8-0.3,1.2
				c-0.5,1.6-1.2,3-2.3,4.2c-1,1.2-2.3,2.1-3.8,2.8c-1.5,0.7-3,1-4.6,1c-2.1,0-4.1-0.6-6-1.8v12h-5.2V14.1h5.2v1.6
				c1.8-1.2,3.8-1.9,6-1.9c1.6,0,3.2,0.3,4.7,1s2.8,1.7,3.9,2.9c1,1.2,1.8,2.7,2.2,4.3C194.7,22.6,194.7,23,194.8,23.3z M189.7,28.9
				c0.1-0.4,0.1-1.2,0.1-2.4c0-1.2,0-2-0.1-2.5c0-0.1-0.1-0.3-0.1-0.5c-0.2-0.9-0.7-1.7-1.3-2.5c-1.2-1.4-2.7-2.1-4.6-2.1
				c-1.9,0-3.4,0.7-4.6,2.1c-0.6,0.7-1,1.5-1.2,2.3c-0.1,0.5-0.2,1.5-0.2,3c0,1.5,0.1,2.6,0.2,3.1c0.2,0.9,0.6,1.6,1.2,2.3
				c1.2,1.4,2.7,2.2,4.6,2.2c1.8,0,3.4-0.7,4.6-2.2c0.6-0.7,1-1.4,1.2-2.3C189.6,29.3,189.7,29.1,189.7,28.9z"/>
			<path id="XMLID_481_" class="st2" d="M211.3,4.1c2.6,0,4.8,0.9,6.6,2.8c1.8,1.9,2.8,4.1,2.8,6.7v2c0,2.6-0.9,4.8-2.8,6.6
				c-1.8,1.8-4,2.8-6.6,2.8h-7.4V39h-5.2v-35H211.3z M215.5,15.5v-2c0-1.2-0.4-2.2-1.2-3c-0.8-0.8-1.8-1.2-3-1.2h-7.4v10.3h7.4
				c1.2,0,2.2-0.4,3-1.2C215.1,17.6,215.5,16.7,215.5,15.5z"/>
			<path id="XMLID_484_" class="st2" d="M234.6,14.3c0.8,0,1.6,0,2.5,0.3v5.1c-0.8-0.3-1.6-0.5-2.5-0.5c-1.9,0-3.4,0.7-4.6,2.2
				c-0.6,0.7-1,1.5-1.2,2.3c-0.1,0.2-0.1,0.6-0.2,1V39h-5.1v-25h5.1v2C230.5,14.9,232.5,14.3,234.6,14.3z"/>
			<path id="XMLID_486_" class="st2" d="M242.1,17.2c2.2-2.2,4.8-3.3,7.9-3.3c3.1,0,5.7,1.1,7.9,3.3c2.2,2.2,3.3,4.8,3.3,7.9v3.2
				c0,2.5-0.8,4.7-2.3,6.7c-1.5,2-3.4,3.3-5.8,4c-1,0.3-2.1,0.5-3.2,0.5c-1.1,0-2.2-0.2-3.2-0.5c-2.3-0.7-4.3-2-5.8-4
				c-1.5-2-2.3-4.2-2.3-6.7v-3.2C238.8,22,239.9,19.3,242.1,17.2z M256.1,28.3v-3.2c0-1.7-0.6-3.1-1.8-4.3c-1.2-1.2-2.6-1.8-4.3-1.8
				c-1.7,0-3.1,0.6-4.3,1.8c-1.2,1.2-1.8,2.6-1.8,4.3v3.2c0,1.7,0.6,3.1,1.8,4.3c1.2,1.2,2.6,1.8,4.3,1.8c1.7,0,3.1-0.6,4.3-1.8
				C255.5,31.4,256.1,30,256.1,28.3z"/>
			<path id="XMLID_489_" class="st2" d="M284.5,14.1l-7.8,13.7l7.4,11.3H278l-4.6-7l-4.3,7h-6l7.2-11.8L263,14.1h5.9l4.8,8.7l5-8.7
				H284.5z"/>
			<path id="XMLID_491_" class="st2" d="M308.6,14.1v23.3c0,3.1-1.1,5.8-3.4,8c-2.2,2.2-4.9,3.3-8,3.3c-1.6,0-3.1-0.2-4.6-0.7
				c-1.4-0.4-2.7-1-4-1.9l2.8-4.3c0.8,0.6,1.7,1,2.7,1.3c1,0.3,2,0.5,3.1,0.5c1.7,0,3.2-0.6,4.4-1.8s1.8-2.7,1.8-4.4v-0.2
				c-1.5,1-3.2,1.6-5,1.8c-0.4,0-0.7,0-1,0c-0.4,0-0.8,0-1.2,0c-2.7-0.3-5-1.5-7-3.8c-0.5-0.6-0.9-1.2-1.3-1.9
				c-0.4-0.8-0.8-1.6-1-2.4c-0.1-0.5-0.2-0.9-0.3-1.2c-0.1-0.4-0.1-0.8-0.2-1.2V14.1h5.2c0,0.7,0,3.2,0,7.5c0,4.3,0,6.8,0.1,7.5
				c0,0.2,0,0.4,0.1,0.7c0.2,0.9,0.6,1.7,1.2,2.3c1.2,1.4,2.7,2.1,4.3,2.1c1.8,0,3.4-0.7,4.6-2.1c0.6-0.7,1-1.5,1.2-2.3
				c0.1-0.3,0.1-0.7,0.1-1.1V14.1H308.6z"/>
		</g>
		<g id="XMLID_425_">
			<path id="XMLID_426_" class="st2" d="M117.7,31.8l4.8-27.7h5.3l-6.1,35h-7.8l-3-16.2L107.7,39h-7.8l-6.1-35h5.2l4.8,27.7
				l3.9-20.5h6.1L117.7,31.8z"/>
			<path id="XMLID_428_" class="st2" d="M146.8,14.1h5.1v25h-5.1v-1.6c-1.1,0.7-2.4,1.3-3.7,1.6c-0.7,0.2-1.5,0.3-2.3,0.3
				c-0.9,0-1.7-0.1-2.6-0.3c-2.4-0.6-4.4-1.8-6-3.7c-1.1-1.3-1.8-2.7-2.3-4.3c-0.1-0.5-0.2-0.9-0.3-1.2c-0.1-0.4-0.1-0.8-0.1-1.2v-4
				c0-0.4,0.1-0.8,0.2-1.2c0.1-0.4,0.1-0.8,0.3-1.2c0.5-1.6,1.2-3,2.3-4.3c1-1.2,2.3-2.1,3.8-2.8c1.5-0.7,3.1-1,4.7-1
				c2.1,0,4.1,0.6,5.9,1.8V14.1z M146.7,29.7c0.1-0.5,0.2-1.5,0.2-3c0-1.5-0.1-2.6-0.2-3.1c-0.2-0.9-0.6-1.6-1.2-2.3
				c-1.2-1.4-2.8-2.2-4.6-2.2c-1.9,0-3.4,0.7-4.6,2.2c-0.6,0.7-1,1.4-1.3,2.3c-0.1,0.3-0.1,0.5-0.1,0.7c-0.1,0.4-0.1,1.2-0.1,2.4
				c0,1.2,0,2,0.1,2.4c0,0.2,0,0.3,0.1,0.5c0.2,0.9,0.6,1.8,1.3,2.5c1.2,1.4,2.7,2.1,4.6,2.1c1.9,0,3.4-0.7,4.6-2.1
				C146,31.4,146.4,30.6,146.7,29.7z"/>
			<path id="XMLID_431_" class="st2" d="M167.6,14.3c0.8,0,1.6,0,2.4,0.3v5.1c-0.8-0.3-1.6-0.5-2.4-0.5c-1.9,0-3.4,0.7-4.6,2.2
				c-0.6,0.7-1,1.5-1.2,2.3c-0.1,0.2-0.1,0.6-0.1,1V39h-5.2v-25h5.2v2C163.5,14.9,165.4,14.3,167.6,14.3z"/>
			<path id="XMLID_433_" class="st2" d="M194.8,23.3c0.1,0.4,0.1,0.8,0.1,1.2l0,3.9c0,0.4-0.1,0.8-0.2,1.2c0,0.4-0.1,0.8-0.3,1.2
				c-0.5,1.6-1.2,3-2.3,4.2c-1,1.2-2.3,2.1-3.8,2.8c-1.5,0.7-3,1-4.6,1c-2.1,0-4.1-0.6-6-1.8v12h-5.2V14.1h5.2v1.6
				c1.8-1.2,3.8-1.9,6-1.9c1.6,0,3.2,0.3,4.7,1s2.8,1.7,3.9,2.9c1,1.2,1.8,2.7,2.2,4.3C194.7,22.6,194.7,23,194.8,23.3z M189.7,28.9
				c0.1-0.4,0.1-1.2,0.1-2.4c0-1.2,0-2-0.1-2.5c0-0.1-0.1-0.3-0.1-0.5c-0.2-0.9-0.7-1.7-1.3-2.5c-1.2-1.4-2.7-2.1-4.6-2.1
				c-1.9,0-3.4,0.7-4.6,2.1c-0.6,0.7-1,1.5-1.2,2.3c-0.1,0.5-0.2,1.5-0.2,3c0,1.5,0.1,2.6,0.2,3.1c0.2,0.9,0.6,1.6,1.2,2.3
				c1.2,1.4,2.7,2.2,4.6,2.2c1.8,0,3.4-0.7,4.6-2.2c0.6-0.7,1-1.4,1.2-2.3C189.6,29.3,189.7,29.1,189.7,28.9z"/>
			<path id="XMLID_436_" class="st2" d="M211.3,4.1c2.6,0,4.8,0.9,6.6,2.8c1.8,1.9,2.8,4.1,2.8,6.7v2c0,2.6-0.9,4.8-2.8,6.6
				c-1.8,1.8-4,2.8-6.6,2.8h-7.4V39h-5.2v-35H211.3z M215.5,15.5v-2c0-1.2-0.4-2.2-1.2-3c-0.8-0.8-1.8-1.2-3-1.2h-7.4v10.3h7.4
				c1.2,0,2.2-0.4,3-1.2C215.1,17.6,215.5,16.7,215.5,15.5z"/>
			<path id="XMLID_439_" class="st2" d="M234.6,14.3c0.8,0,1.6,0,2.5,0.3v5.1c-0.8-0.3-1.6-0.5-2.5-0.5c-1.9,0-3.4,0.7-4.6,2.2
				c-0.6,0.7-1,1.5-1.2,2.3c-0.1,0.2-0.1,0.6-0.2,1V39h-5.1v-25h5.1v2C230.5,14.9,232.5,14.3,234.6,14.3z"/>
			<path id="XMLID_441_" class="st2" d="M242.1,17.2c2.2-2.2,4.8-3.3,7.9-3.3c3.1,0,5.7,1.1,7.9,3.3c2.2,2.2,3.3,4.8,3.3,7.9v3.2
				c0,2.5-0.8,4.7-2.3,6.7c-1.5,2-3.4,3.3-5.8,4c-1,0.3-2.1,0.5-3.2,0.5c-1.1,0-2.2-0.2-3.2-0.5c-2.3-0.7-4.3-2-5.8-4
				c-1.5-2-2.3-4.2-2.3-6.7v-3.2C238.8,22,239.9,19.3,242.1,17.2z M256.1,28.3v-3.2c0-1.7-0.6-3.1-1.8-4.3c-1.2-1.2-2.6-1.8-4.3-1.8
				c-1.7,0-3.1,0.6-4.3,1.8c-1.2,1.2-1.8,2.6-1.8,4.3v3.2c0,1.7,0.6,3.1,1.8,4.3c1.2,1.2,2.6,1.8,4.3,1.8c1.7,0,3.1-0.6,4.3-1.8
				C255.5,31.4,256.1,30,256.1,28.3z"/>
			<path id="XMLID_444_" class="st2" d="M284.5,14.1l-7.8,13.7l7.4,11.3H278l-4.6-7l-4.3,7h-6l7.2-11.8L263,14.1h5.9l4.8,8.7l5-8.7
				H284.5z"/>
			<path id="XMLID_446_" class="st2" d="M308.6,14.1v23.3c0,3.1-1.1,5.8-3.4,8c-2.2,2.2-4.9,3.3-8,3.3c-1.6,0-3.1-0.2-4.6-0.7
				c-1.4-0.4-2.7-1-4-1.9l2.8-4.3c0.8,0.6,1.7,1,2.7,1.3c1,0.3,2,0.5,3.1,0.5c1.7,0,3.2-0.6,4.4-1.8s1.8-2.7,1.8-4.4v-0.2
				c-1.5,1-3.2,1.6-5,1.8c-0.4,0-0.7,0-1,0c-0.4,0-0.8,0-1.2,0c-2.7-0.3-5-1.5-7-3.8c-0.5-0.6-0.9-1.2-1.3-1.9
				c-0.4-0.8-0.8-1.6-1-2.4c-0.1-0.5-0.2-0.9-0.3-1.2c-0.1-0.4-0.1-0.8-0.2-1.2V14.1h5.2c0,0.7,0,3.2,0,7.5c0,4.3,0,6.8,0.1,7.5
				c0,0.2,0,0.4,0.1,0.7c0.2,0.9,0.6,1.7,1.2,2.3c1.2,1.4,2.7,2.1,4.3,2.1c1.8,0,3.4-0.7,4.6-2.1c0.6-0.7,1-1.5,1.2-2.3
				c0.1-0.3,0.1-0.7,0.1-1.1V14.1H308.6z"/>
		</g>
		<g id="XMLID_82_">
			<path id="XMLID_403_" class="st2" d="M117.7,31.8l4.8-27.7h5.3l-6.1,35h-7.8l-3-16.2L107.7,39h-7.8l-6.1-35h5.2l4.8,27.7
				l3.9-20.5h6.1L117.7,31.8z"/>
			<path id="XMLID_405_" class="st2" d="M146.8,14.1h5.1v25h-5.1v-1.6c-1.1,0.7-2.4,1.3-3.7,1.6c-0.7,0.2-1.5,0.3-2.3,0.3
				c-0.9,0-1.7-0.1-2.6-0.3c-2.4-0.6-4.4-1.8-6-3.7c-1.1-1.3-1.8-2.7-2.3-4.3c-0.1-0.5-0.2-0.9-0.3-1.2c-0.1-0.4-0.1-0.8-0.1-1.2v-4
				c0-0.4,0.1-0.8,0.2-1.2c0.1-0.4,0.1-0.8,0.3-1.2c0.5-1.6,1.2-3,2.3-4.3c1-1.2,2.3-2.1,3.8-2.8c1.5-0.7,3.1-1,4.7-1
				c2.1,0,4.1,0.6,5.9,1.8V14.1z M146.7,29.7c0.1-0.5,0.2-1.5,0.2-3c0-1.5-0.1-2.6-0.2-3.1c-0.2-0.9-0.6-1.6-1.2-2.3
				c-1.2-1.4-2.8-2.2-4.6-2.2c-1.9,0-3.4,0.7-4.6,2.2c-0.6,0.7-1,1.4-1.3,2.3c-0.1,0.3-0.1,0.5-0.1,0.7c-0.1,0.4-0.1,1.2-0.1,2.4
				c0,1.2,0,2,0.1,2.4c0,0.2,0,0.3,0.1,0.5c0.2,0.9,0.6,1.8,1.3,2.5c1.2,1.4,2.7,2.1,4.6,2.1c1.9,0,3.4-0.7,4.6-2.1
				C146,31.4,146.4,30.6,146.7,29.7z"/>
			<path id="XMLID_408_" class="st2" d="M167.6,14.3c0.8,0,1.6,0,2.4,0.3v5.1c-0.8-0.3-1.6-0.5-2.4-0.5c-1.9,0-3.4,0.7-4.6,2.2
				c-0.6,0.7-1,1.5-1.2,2.3c-0.1,0.2-0.1,0.6-0.1,1V39h-5.2v-25h5.2v2C163.5,14.9,165.4,14.3,167.6,14.3z"/>
			<path id="XMLID_410_" class="st2" d="M194.8,23.3c0.1,0.4,0.1,0.8,0.1,1.2l0,3.9c0,0.4-0.1,0.8-0.2,1.2c0,0.4-0.1,0.8-0.3,1.2
				c-0.5,1.6-1.2,3-2.3,4.2c-1,1.2-2.3,2.1-3.8,2.8c-1.5,0.7-3,1-4.6,1c-2.1,0-4.1-0.6-6-1.8v12h-5.2V14.1h5.2v1.6
				c1.8-1.2,3.8-1.9,6-1.9c1.6,0,3.2,0.3,4.7,1s2.8,1.7,3.9,2.9c1,1.2,1.8,2.7,2.2,4.3C194.7,22.6,194.7,23,194.8,23.3z M189.7,28.9
				c0.1-0.4,0.1-1.2,0.1-2.4c0-1.2,0-2-0.1-2.5c0-0.1-0.1-0.3-0.1-0.5c-0.2-0.9-0.7-1.7-1.3-2.5c-1.2-1.4-2.7-2.1-4.6-2.1
				c-1.9,0-3.4,0.7-4.6,2.1c-0.6,0.7-1,1.5-1.2,2.3c-0.1,0.5-0.2,1.5-0.2,3c0,1.5,0.1,2.6,0.2,3.1c0.2,0.9,0.6,1.6,1.2,2.3
				c1.2,1.4,2.7,2.2,4.6,2.2c1.8,0,3.4-0.7,4.6-2.2c0.6-0.7,1-1.4,1.2-2.3C189.6,29.3,189.7,29.1,189.7,28.9z"/>
			<path id="XMLID_413_" class="st2" d="M211.3,4.1c2.6,0,4.8,0.9,6.6,2.8c1.8,1.9,2.8,4.1,2.8,6.7v2c0,2.6-0.9,4.8-2.8,6.6
				c-1.8,1.8-4,2.8-6.6,2.8h-7.4V39h-5.2v-35H211.3z M215.5,15.5v-2c0-1.2-0.4-2.2-1.2-3c-0.8-0.8-1.8-1.2-3-1.2h-7.4v10.3h7.4
				c1.2,0,2.2-0.4,3-1.2C215.1,17.6,215.5,16.7,215.5,15.5z"/>
			<path id="XMLID_416_" class="st2" d="M234.6,14.3c0.8,0,1.6,0,2.5,0.3v5.1c-0.8-0.3-1.6-0.5-2.5-0.5c-1.9,0-3.4,0.7-4.6,2.2
				c-0.6,0.7-1,1.5-1.2,2.3c-0.1,0.2-0.1,0.6-0.2,1V39h-5.1v-25h5.1v2C230.5,14.9,232.5,14.3,234.6,14.3z"/>
			<path id="XMLID_418_" class="st2" d="M242.1,17.2c2.2-2.2,4.8-3.3,7.9-3.3c3.1,0,5.7,1.1,7.9,3.3c2.2,2.2,3.3,4.8,3.3,7.9v3.2
				c0,2.5-0.8,4.7-2.3,6.7c-1.5,2-3.4,3.3-5.8,4c-1,0.3-2.1,0.5-3.2,0.5c-1.1,0-2.2-0.2-3.2-0.5c-2.3-0.7-4.3-2-5.8-4
				c-1.5-2-2.3-4.2-2.3-6.7v-3.2C238.8,22,239.9,19.3,242.1,17.2z M256.1,28.3v-3.2c0-1.7-0.6-3.1-1.8-4.3c-1.2-1.2-2.6-1.8-4.3-1.8
				c-1.7,0-3.1,0.6-4.3,1.8c-1.2,1.2-1.8,2.6-1.8,4.3v3.2c0,1.7,0.6,3.1,1.8,4.3c1.2,1.2,2.6,1.8,4.3,1.8c1.7,0,3.1-0.6,4.3-1.8
				C255.5,31.4,256.1,30,256.1,28.3z"/>
			<path id="XMLID_421_" class="st2" d="M284.5,14.1l-7.8,13.7l7.4,11.3H278l-4.6-7l-4.3,7h-6l7.2-11.8L263,14.1h5.9l4.8,8.7l5-8.7
				H284.5z"/>
			<path id="XMLID_423_" class="st2" d="M308.6,14.1v23.3c0,3.1-1.1,5.8-3.4,8c-2.2,2.2-4.9,3.3-8,3.3c-1.6,0-3.1-0.2-4.6-0.7
				c-1.4-0.4-2.7-1-4-1.9l2.8-4.3c0.8,0.6,1.7,1,2.7,1.3c1,0.3,2,0.5,3.1,0.5c1.7,0,3.2-0.6,4.4-1.8s1.8-2.7,1.8-4.4v-0.2
				c-1.5,1-3.2,1.6-5,1.8c-0.4,0-0.7,0-1,0c-0.4,0-0.8,0-1.2,0c-2.7-0.3-5-1.5-7-3.8c-0.5-0.6-0.9-1.2-1.3-1.9
				c-0.4-0.8-0.8-1.6-1-2.4c-0.1-0.5-0.2-0.9-0.3-1.2c-0.1-0.4-0.1-0.8-0.2-1.2V14.1h5.2c0,0.7,0,3.2,0,7.5c0,4.3,0,6.8,0.1,7.5
				c0,0.2,0,0.4,0.1,0.7c0.2,0.9,0.6,1.7,1.2,2.3c1.2,1.4,2.7,2.1,4.3,2.1c1.8,0,3.4-0.7,4.6-2.1c0.6-0.7,1-1.5,1.2-2.3
				c0.1-0.3,0.1-0.7,0.1-1.1V14.1H308.6z"/>
		</g>
		<g id="XMLID_76_">
			<path id="XMLID_79_" class="st2" d="M20.3,40.6c-5.6,0-10.3-2.3-14.1-7c-0.7-0.9-1.2-1.7-1.5-2.4c-0.5-0.8-0.9-1.9-1.3-3.2
				c-0.5-1.6-0.7-3.8-0.7-6.6V5.4h7.1v16.7c0,5.6,2.5,9.3,7.6,11.2c1.1,0.3,2.1,0.5,3,0.5c0.9,0,1.9-0.2,3.1-0.5
				c5.1-1.9,7.6-5.6,7.6-11.2V5.4H38v15.9c0,2.8-0.2,5-0.7,6.6c-0.4,1.4-0.8,2.4-1.3,3.2c-0.3,0.7-0.8,1.5-1.5,2.4
				C30.6,38.3,25.9,40.6,20.3,40.6z M16.8,5.4h7v18.1h-7V5.4z"/>
			<path id="XMLID_77_" class="st2" d="M41.7,5.4h19.6c7.1,0,12,3.1,14.8,9.3c0.7,1.7,1,3.6,1,5.6c0,4.1-1.6,7.7-4.8,10.8
				c-2,1.8-4.4,2.9-7.3,3.6c-1,0.1-2.1,0.2-3.4,0.2l-12.8,0.1v5.5h-7.1V28.1H61c2.5,0,4.4-0.5,5.5-1.4c1.5-1,2.6-2.5,3.2-4.6
				c0.1-0.6,0.2-1.1,0.2-1.5v-0.7c0-1.8-0.8-3.6-2.4-5.4c-1.6-1.4-3.5-2.2-5.5-2.2H41.7V5.4z"/>
		</g>
	</g>
</g>
<g id="Layer_3" class="st0">
	<g id="XMLID_162_" class="st1">
		<path id="XMLID_165_" d="M342.4-22.9c-5.6,0-10.3-2.3-14.1-7c-0.7-0.9-1.2-1.7-1.5-2.4c-0.5-0.8-0.9-1.9-1.3-3.2
			c-0.5-1.6-0.7-3.8-0.7-6.6v-15.9h7.1v16.7c0,5.6,2.5,9.3,7.6,11.2c1.1,0.3,2.1,0.5,3,0.5c0.9,0,1.9-0.2,3.1-0.5
			c5.1-1.9,7.6-5.6,7.6-11.2v-16.7h7.1v15.9c0,2.8-0.2,5-0.7,6.6c-0.4,1.4-0.8,2.4-1.3,3.2c-0.3,0.7-0.8,1.5-1.5,2.4
			C352.7-25.2,348-22.9,342.4-22.9z M338.9-58.1h7v18.1h-7V-58.1z"/>
		<path id="XMLID_163_" d="M363.8-58.1h19.6c7.1,0,12,3.1,14.8,9.3c0.7,1.7,1,3.6,1,5.6c0,4.1-1.6,7.7-4.8,10.8
			c-2,1.8-4.4,2.9-7.3,3.6c-1,0.1-2.1,0.2-3.4,0.2l-12.8,0.1v5.5h-7.1v-12.5h19.3c2.5,0,4.4-0.5,5.5-1.4c1.5-1,2.6-2.5,3.2-4.6
			c0.1-0.6,0.2-1.1,0.2-1.5v-0.7c0-1.8-0.8-3.6-2.4-5.4c-1.6-1.4-3.5-2.2-5.5-2.2h-20.4V-58.1z"/>
	</g>
</g>
<g id="Layer_4" class="st0">
	<g id="XMLID_219_" class="st1">
		<path id="XMLID_222_" class="st2" d="M342.4,43.6c-5.6,0-10.3-2.3-14.1-7c-0.7-0.9-1.2-1.7-1.5-2.4c-0.5-0.8-0.9-1.9-1.3-3.2
			c-0.5-1.6-0.7-3.8-0.7-6.6V8.4h7.1v16.7c0,5.6,2.5,9.3,7.6,11.2c1.1,0.3,2.1,0.5,3,0.5c0.9,0,1.9-0.2,3.1-0.5
			c5.1-1.9,7.6-5.6,7.6-11.2V8.4h7.1v15.9c0,2.8-0.2,5-0.7,6.6c-0.4,1.4-0.8,2.4-1.3,3.2c-0.3,0.7-0.8,1.5-1.5,2.4
			C352.7,41.3,348,43.6,342.4,43.6z M338.9,8.4h7v18.1h-7V8.4z"/>
		<path id="XMLID_220_" class="st2" d="M363.8,8.4h19.6c7.1,0,12,3.1,14.8,9.3c0.7,1.7,1,3.6,1,5.6c0,4.1-1.6,7.7-4.8,10.8
			c-2,1.8-4.4,2.9-7.3,3.6c-1,0.1-2.1,0.2-3.4,0.2l-12.8,0.1v5.5h-7.1V31.1h19.3c2.5,0,4.4-0.5,5.5-1.4c1.5-1,2.6-2.5,3.2-4.6
			c0.1-0.6,0.2-1.1,0.2-1.5v-0.7c0-1.8-0.8-3.6-2.4-5.4c-1.6-1.4-3.5-2.2-5.5-2.2h-20.4V8.4z"/>
	</g>
</g>
</svg>
