<?xml version="1.0" encoding="utf-8"?>
<!-- Generator: Adobe Illustrator 19.0.0, SVG Export Plug-In . SVG Version: 6.00 Build 0)  -->
<svg version="1.1" id="Layer_1" xmlns="http://www.w3.org/2000/svg" xmlns:xlink="http://www.w3.org/1999/xlink" x="0px" y="0px"
	 viewBox="-437 254.9 83.9 52.1" style="enable-background:new -437 254.9 83.9 52.1;" xml:space="preserve">
<style type="text/css">
	.st0{display:none;}
	.st1{display:inline;}
	.st2{fill:#FFFFFF;}
</style>
<g id="Layer_1_1_" class="st0">
	<g id="XMLID_4_" class="st1">
		<g>
			<path id="XMLID_387_" d="M-639.3,286.7l4.8-27.7h5.3l-6.1,35h-7.8l-3-16.3l-3.1,16.3h-7.8l-6.1-35h5.2l4.8,27.7l3.9-20.5h6.1
				L-639.3,286.7z"/>
			<path id="XMLID_389_" d="M-610.2,269h5.1v25h-5.1v-1.6c-1.1,0.7-2.4,1.3-3.7,1.6c-0.7,0.2-1.5,0.3-2.3,0.3
				c-0.9,0-1.7-0.1-2.6-0.3c-2.4-0.6-4.4-1.8-6-3.7c-1.1-1.3-1.8-2.7-2.3-4.3c-0.1-0.5-0.2-0.9-0.3-1.2c-0.1-0.4-0.1-0.8-0.1-1.2v-4
				c0-0.4,0.1-0.8,0.2-1.2c0.1-0.4,0.1-0.8,0.3-1.2c0.5-1.6,1.2-3,2.3-4.3c1-1.2,2.3-2.1,3.8-2.8c1.5-0.7,3.1-1,4.7-1
				c2.1,0,4.1,0.6,5.9,1.9v-2H-610.2z M-610.3,284.6c0.1-0.5,0.2-1.5,0.2-3s-0.1-2.6-0.2-3.1c-0.2-0.9-0.6-1.6-1.2-2.3
				c-1.2-1.4-2.8-2.1-4.6-2.1c-1.9,0-3.4,0.7-4.6,2.1c-0.6,0.7-1,1.4-1.3,2.3c-0.1,0.3-0.1,0.5-0.1,0.6c-0.1,0.4-0.1,1.2-0.1,2.4
				c0,1.2,0,2,0.1,2.4c0,0.2,0,0.3,0.1,0.5c0.2,0.9,0.6,1.8,1.3,2.5c1.2,1.4,2.7,2.1,4.6,2.1c1.9,0,3.4-0.7,4.6-2.1
				C-611,286.3-610.6,285.5-610.3,284.6z"/>
			<path id="XMLID_392_" d="M-589.4,269.2c0.8,0,1.6,0,2.4,0.3v5.1c-0.8-0.3-1.6-0.5-2.4-0.5c-1.9,0-3.4,0.7-4.6,2.1
				c-0.6,0.7-1,1.5-1.2,2.3c-0.1,0.2-0.1,0.6-0.1,1v14.4h-5.2v-25h5.2v2.1C-593.5,269.8-591.6,269.2-589.4,269.2z"/>
			<path id="XMLID_394_" d="M-562.2,278.2c0.1,0.4,0.1,0.8,0.1,1.2v3.9c0,0.4-0.1,0.8-0.2,1.2c0,0.4-0.1,0.8-0.3,1.2
				c-0.5,1.6-1.2,3-2.3,4.2c-1,1.2-2.3,2.1-3.8,2.8c-1.5,0.7-3,1-4.6,1c-2.1,0-4.1-0.6-6-1.8v12h-5.2V269h5.2v1.6
				c1.8-1.2,3.8-1.9,6-1.9c1.6,0,3.2,0.3,4.7,1c1.5,0.7,2.8,1.7,3.9,2.9c1,1.2,1.8,2.7,2.2,4.3
				C-562.3,277.5-562.3,277.9-562.2,278.2z M-567.3,283.8c0.1-0.4,0.1-1.2,0.1-2.4s0-2-0.1-2.5c0-0.1-0.1-0.3-0.1-0.5
				c-0.2-0.9-0.7-1.7-1.3-2.5c-1.2-1.4-2.7-2.1-4.6-2.1c-1.9,0-3.4,0.7-4.6,2.1c-0.6,0.7-1,1.5-1.2,2.4c-0.1,0.5-0.2,1.5-0.2,3
				s0.1,2.6,0.2,3.1c0.2,0.9,0.6,1.6,1.2,2.3c1.2,1.4,2.7,2.2,4.6,2.2c1.8,0,3.4-0.7,4.6-2.2c0.6-0.7,1-1.4,1.2-2.3
				C-567.4,284.2-567.3,284-567.3,283.8z"/>
			<path id="XMLID_397_" d="M-545.7,259c2.6,0,4.8,0.9,6.6,2.8c1.8,1.9,2.8,4.1,2.8,6.6v2c0,2.6-0.9,4.8-2.8,6.6
				c-1.8,1.8-4,2.8-6.6,2.8h-7.4v14.1h-5.2v-35h12.6V259z M-541.5,270.4v-2c0-1.2-0.4-2.2-1.2-3s-1.8-1.2-3-1.2h-7.4v10.4h7.4
				c1.2,0,2.2-0.4,3-1.2C-541.9,272.5-541.5,271.6-541.5,270.4z"/>
			<path id="XMLID_400_" d="M-522.4,269.2c0.8,0,1.6,0,2.5,0.3v5.1c-0.8-0.3-1.6-0.5-2.5-0.5c-1.9,0-3.4,0.7-4.6,2.1
				c-0.6,0.7-1,1.5-1.2,2.3c-0.1,0.2-0.1,0.6-0.2,1v14.4h-5.1v-25h5.1v2.1C-526.5,269.8-524.5,269.2-522.4,269.2z"/>
			<path id="XMLID_402_" d="M-514.9,272.1c2.2-2.2,4.8-3.3,7.9-3.3s5.7,1.1,7.9,3.3c2.2,2.2,3.3,4.8,3.3,7.9v3.2
				c0,2.5-0.8,4.7-2.3,6.7s-3.4,3.3-5.8,4c-1,0.3-2.1,0.5-3.2,0.5s-2.2-0.2-3.2-0.5c-2.3-0.7-4.3-2-5.8-4s-2.3-4.2-2.3-6.7V280
				C-518.2,276.9-517.1,274.2-514.9,272.1z M-500.9,283.2V280c0-1.7-0.6-3.1-1.8-4.3c-1.2-1.2-2.6-1.8-4.3-1.8s-3.1,0.6-4.3,1.8
				c-1.2,1.2-1.8,2.6-1.8,4.3v3.2c0,1.7,0.6,3.1,1.8,4.3c1.2,1.2,2.6,1.8,4.3,1.8c1.7,0,3.1-0.6,4.3-1.8
				C-501.5,286.3-500.9,284.9-500.9,283.2z"/>
			<path id="XMLID_405_" d="M-472.5,269l-7.8,13.7l7.4,11.3h-6.1l-4.6-7l-4.3,7h-6l7.2-11.8L-494,269h5.9l4.8,8.7l5-8.7
				C-478.3,269-472.5,269-472.5,269z"/>
			<path id="XMLID_407_" d="M-448.4,269v23.3c0,3.1-1.1,5.8-3.4,8c-2.2,2.2-4.9,3.3-8,3.3c-1.6,0-3.1-0.2-4.6-0.7
				c-1.4-0.4-2.7-1-4-1.9l2.8-4.3c0.8,0.6,1.7,1,2.7,1.3c1,0.3,2,0.5,3.1,0.5c1.7,0,3.2-0.6,4.4-1.8c1.2-1.2,1.8-2.7,1.8-4.4v-0.2
				c-1.5,1-3.2,1.6-5,1.8c-0.4,0-0.7,0-1,0c-0.4,0-0.8,0-1.2,0c-2.7-0.3-5-1.5-7-3.8c-0.5-0.6-0.9-1.2-1.3-1.9
				c-0.4-0.8-0.8-1.6-1-2.4c-0.1-0.5-0.2-0.9-0.3-1.2c-0.1-0.4-0.1-0.8-0.2-1.2V269h5.2c0,0.7,0,3.2,0,7.5c0,4.3,0,6.8,0.1,7.5
				c0,0.2,0,0.4,0.1,0.7c0.2,0.9,0.6,1.7,1.2,2.3c1.2,1.4,2.7,2.1,4.3,2.1c1.8,0,3.4-0.7,4.6-2.1c0.6-0.7,1-1.5,1.2-2.3
				c0.1-0.3,0.1-0.7,0.1-1.1V269H-448.4z"/>
		</g>
		<g id="XMLID_1_">
			<path id="XMLID_342_" d="M-639.3,286.7l4.8-27.7h5.3l-6.1,35h-7.8l-3-16.3l-3.1,16.3h-7.8l-6.1-35h5.2l4.8,27.7l3.9-20.5h6.1
				L-639.3,286.7z"/>
			<path id="XMLID_344_" d="M-610.2,269h5.1v25h-5.1v-1.6c-1.1,0.7-2.4,1.3-3.7,1.6c-0.7,0.2-1.5,0.3-2.3,0.3
				c-0.9,0-1.7-0.1-2.6-0.3c-2.4-0.6-4.4-1.8-6-3.7c-1.1-1.3-1.8-2.7-2.3-4.3c-0.1-0.5-0.2-0.9-0.3-1.2c-0.1-0.4-0.1-0.8-0.1-1.2v-4
				c0-0.4,0.1-0.8,0.2-1.2c0.1-0.4,0.1-0.8,0.3-1.2c0.5-1.6,1.2-3,2.3-4.3c1-1.2,2.3-2.1,3.8-2.8c1.5-0.7,3.1-1,4.7-1
				c2.1,0,4.1,0.6,5.9,1.9v-2H-610.2z M-610.3,284.6c0.1-0.5,0.2-1.5,0.2-3s-0.1-2.6-0.2-3.1c-0.2-0.9-0.6-1.6-1.2-2.3
				c-1.2-1.4-2.8-2.1-4.6-2.1c-1.9,0-3.4,0.7-4.6,2.1c-0.6,0.7-1,1.4-1.3,2.3c-0.1,0.3-0.1,0.5-0.1,0.6c-0.1,0.4-0.1,1.2-0.1,2.4
				c0,1.2,0,2,0.1,2.4c0,0.2,0,0.3,0.1,0.5c0.2,0.9,0.6,1.8,1.3,2.5c1.2,1.4,2.7,2.1,4.6,2.1c1.9,0,3.4-0.7,4.6-2.1
				C-611,286.3-610.6,285.5-610.3,284.6z"/>
			<path id="XMLID_347_" d="M-589.4,269.2c0.8,0,1.6,0,2.4,0.3v5.1c-0.8-0.3-1.6-0.5-2.4-0.5c-1.9,0-3.4,0.7-4.6,2.1
				c-0.6,0.7-1,1.5-1.2,2.3c-0.1,0.2-0.1,0.6-0.1,1v14.4h-5.2v-25h5.2v2.1C-593.5,269.8-591.6,269.2-589.4,269.2z"/>
			<path id="XMLID_349_" d="M-562.2,278.2c0.1,0.4,0.1,0.8,0.1,1.2v3.9c0,0.4-0.1,0.8-0.2,1.2c0,0.4-0.1,0.8-0.3,1.2
				c-0.5,1.6-1.2,3-2.3,4.2c-1,1.2-2.3,2.1-3.8,2.8c-1.5,0.7-3,1-4.6,1c-2.1,0-4.1-0.6-6-1.8v12h-5.2V269h5.2v1.6
				c1.8-1.2,3.8-1.9,6-1.9c1.6,0,3.2,0.3,4.7,1c1.5,0.7,2.8,1.7,3.9,2.9c1,1.2,1.8,2.7,2.2,4.3
				C-562.3,277.5-562.3,277.9-562.2,278.2z M-567.3,283.8c0.1-0.4,0.1-1.2,0.1-2.4s0-2-0.1-2.5c0-0.1-0.1-0.3-0.1-0.5
				c-0.2-0.9-0.7-1.7-1.3-2.5c-1.2-1.4-2.7-2.1-4.6-2.1c-1.9,0-3.4,0.7-4.6,2.1c-0.6,0.7-1,1.5-1.2,2.4c-0.1,0.5-0.2,1.5-0.2,3
				s0.1,2.6,0.2,3.1c0.2,0.9,0.6,1.6,1.2,2.3c1.2,1.4,2.7,2.2,4.6,2.2c1.8,0,3.4-0.7,4.6-2.2c0.6-0.7,1-1.4,1.2-2.3
				C-567.4,284.2-567.3,284-567.3,283.8z"/>
			<path id="XMLID_352_" d="M-545.7,259c2.6,0,4.8,0.9,6.6,2.8c1.8,1.9,2.8,4.1,2.8,6.6v2c0,2.6-0.9,4.8-2.8,6.6
				c-1.8,1.8-4,2.8-6.6,2.8h-7.4v14.1h-5.2v-35h12.6V259z M-541.5,270.4v-2c0-1.2-0.4-2.2-1.2-3s-1.8-1.2-3-1.2h-7.4v10.4h7.4
				c1.2,0,2.2-0.4,3-1.2C-541.9,272.5-541.5,271.6-541.5,270.4z"/>
			<path id="XMLID_355_" d="M-522.4,269.2c0.8,0,1.6,0,2.5,0.3v5.1c-0.8-0.3-1.6-0.5-2.5-0.5c-1.9,0-3.4,0.7-4.6,2.1
				c-0.6,0.7-1,1.5-1.2,2.3c-0.1,0.2-0.1,0.6-0.2,1v14.4h-5.1v-25h5.1v2.1C-526.5,269.8-524.5,269.2-522.4,269.2z"/>
			<path id="XMLID_357_" d="M-514.9,272.1c2.2-2.2,4.8-3.3,7.9-3.3s5.7,1.1,7.9,3.3c2.2,2.2,3.3,4.8,3.3,7.9v3.2
				c0,2.5-0.8,4.7-2.3,6.7s-3.4,3.3-5.8,4c-1,0.3-2.1,0.5-3.2,0.5s-2.2-0.2-3.2-0.5c-2.3-0.7-4.3-2-5.8-4s-2.3-4.2-2.3-6.7V280
				C-518.2,276.9-517.1,274.2-514.9,272.1z M-500.9,283.2V280c0-1.7-0.6-3.1-1.8-4.3c-1.2-1.2-2.6-1.8-4.3-1.8s-3.1,0.6-4.3,1.8
				c-1.2,1.2-1.8,2.6-1.8,4.3v3.2c0,1.7,0.6,3.1,1.8,4.3c1.2,1.2,2.6,1.8,4.3,1.8c1.7,0,3.1-0.6,4.3-1.8
				C-501.5,286.3-500.9,284.9-500.9,283.2z"/>
			<path id="XMLID_360_" d="M-472.5,269l-7.8,13.7l7.4,11.3h-6.1l-4.6-7l-4.3,7h-6l7.2-11.8L-494,269h5.9l4.8,8.7l5-8.7
				C-478.3,269-472.5,269-472.5,269z"/>
			<path id="XMLID_362_" d="M-448.4,269v23.3c0,3.1-1.1,5.8-3.4,8c-2.2,2.2-4.9,3.3-8,3.3c-1.6,0-3.1-0.2-4.6-0.7
				c-1.4-0.4-2.7-1-4-1.9l2.8-4.3c0.8,0.6,1.7,1,2.7,1.3c1,0.3,2,0.5,3.1,0.5c1.7,0,3.2-0.6,4.4-1.8c1.2-1.2,1.8-2.7,1.8-4.4v-0.2
				c-1.5,1-3.2,1.6-5,1.8c-0.4,0-0.7,0-1,0c-0.4,0-0.8,0-1.2,0c-2.7-0.3-5-1.5-7-3.8c-0.5-0.6-0.9-1.2-1.3-1.9
				c-0.4-0.8-0.8-1.6-1-2.4c-0.1-0.5-0.2-0.9-0.3-1.2c-0.1-0.4-0.1-0.8-0.2-1.2V269h5.2c0,0.7,0,3.2,0,7.5c0,4.3,0,6.8,0.1,7.5
				c0,0.2,0,0.4,0.1,0.7c0.2,0.9,0.6,1.7,1.2,2.3c1.2,1.4,2.7,2.1,4.3,2.1c1.8,0,3.4-0.7,4.6-2.1c0.6-0.7,1-1.5,1.2-2.3
				c0.1-0.3,0.1-0.7,0.1-1.1V269H-448.4z"/>
		</g>
		<g id="XMLID_2_">
			<path id="XMLID_3_" d="M-736.7,295.5c-5.6,0-10.3-2.3-14.1-7c-0.7-0.9-1.2-1.7-1.5-2.4c-0.5-0.8-0.9-1.9-1.3-3.2
				c-0.5-1.6-0.7-3.8-0.7-6.6v-16h7.1V277c0,5.6,2.5,9.3,7.6,11.2c1.1,0.3,2.1,0.5,3,0.5c0.9,0,1.9-0.2,3.1-0.5
				c5.1-1.9,7.6-5.6,7.6-11.2v-16.7h7.1v15.9c0,2.8-0.2,5-0.7,6.6c-0.4,1.4-0.8,2.4-1.3,3.2c-0.3,0.7-0.8,1.5-1.5,2.4
				C-726.4,293.2-731.1,295.5-736.7,295.5z M-740.2,260.3h7v18.1h-7V260.3z"/>
			<path id="XMLID_7_" d="M-715.3,260.3h19.6c7.1,0,12,3.1,14.8,9.3c0.7,1.7,1,3.6,1,5.6c0,4.1-1.6,7.7-4.8,10.8
				c-2,1.8-4.4,2.9-7.3,3.6c-1,0.1-2.1,0.2-3.4,0.2l-12.8,0.1v5.5h-7.1V283h19.3c2.5,0,4.4-0.5,5.5-1.4c1.5-1,2.6-2.5,3.2-4.6
				c0.1-0.6,0.2-1.1,0.2-1.5v-0.7c0-1.8-0.8-3.6-2.4-5.4c-1.6-1.4-3.5-2.2-5.5-2.2h-20.4v-6.9H-715.3z"/>
		</g>
	</g>
</g>
<g id="Layer_2" class="st0">
	<g id="XMLID_75_" class="st1">
		<g>
			<path id="XMLID_409_" class="st2" d="M-639.3,353.2l4.8-27.7h5.3l-6.1,35h-7.8l-3-16.3l-3.1,16.3h-7.8l-6.1-35h5.2l4.8,27.7
				l3.9-20.5h6.1L-639.3,353.2z"/>
			<path id="XMLID_411_" class="st2" d="M-610.2,335.5h5.1v25h-5.1v-1.6c-1.1,0.7-2.4,1.3-3.7,1.6c-0.7,0.2-1.5,0.3-2.3,0.3
				c-0.9,0-1.7-0.1-2.6-0.3c-2.4-0.6-4.4-1.8-6-3.7c-1.1-1.3-1.8-2.7-2.3-4.3c-0.1-0.5-0.2-0.9-0.3-1.2c-0.1-0.4-0.1-0.8-0.1-1.2v-4
				c0-0.4,0.1-0.8,0.2-1.2c0.1-0.4,0.1-0.8,0.3-1.2c0.5-1.6,1.2-3,2.3-4.3c1-1.2,2.3-2.1,3.8-2.8c1.5-0.7,3.1-1,4.7-1
				c2.1,0,4.1,0.6,5.9,1.8v-1.9H-610.2z M-610.3,351.1c0.1-0.5,0.2-1.5,0.2-3s-0.1-2.6-0.2-3.1c-0.2-0.9-0.6-1.6-1.2-2.3
				c-1.2-1.4-2.8-2.2-4.6-2.2c-1.9,0-3.4,0.7-4.6,2.2c-0.6,0.7-1,1.4-1.3,2.3c-0.1,0.3-0.1,0.5-0.1,0.7c-0.1,0.4-0.1,1.2-0.1,2.4
				c0,1.2,0,2,0.1,2.4c0,0.2,0,0.3,0.1,0.5c0.2,0.9,0.6,1.8,1.3,2.5c1.2,1.4,2.7,2.1,4.6,2.1c1.9,0,3.4-0.7,4.6-2.1
				C-611,352.8-610.6,352-610.3,351.1z"/>
			<path id="XMLID_414_" class="st2" d="M-589.4,335.7c0.8,0,1.6,0,2.4,0.3v5.1c-0.8-0.3-1.6-0.5-2.4-0.5c-1.9,0-3.4,0.7-4.6,2.2
				c-0.6,0.7-1,1.5-1.2,2.3c-0.1,0.2-0.1,0.6-0.1,1v14.4h-5.2v-25h5.2v2C-593.5,336.3-591.6,335.7-589.4,335.7z"/>
			<path id="XMLID_416_" class="st2" d="M-562.2,344.7c0.1,0.4,0.1,0.8,0.1,1.2v3.9c0,0.4-0.1,0.8-0.2,1.2c0,0.4-0.1,0.8-0.3,1.2
				c-0.5,1.6-1.2,3-2.3,4.3c-1,1.2-2.3,2.1-3.8,2.8s-3,1-4.6,1c-2.1,0-4.1-0.6-6-1.8v12h-5.2v-35h5.2v1.6c1.8-1.2,3.8-1.9,6-1.9
				c1.6,0,3.2,0.3,4.7,1c1.5,0.7,2.8,1.7,3.9,2.9c1,1.2,1.8,2.7,2.2,4.3C-562.3,344-562.3,344.4-562.2,344.7z M-567.3,350.3
				c0.1-0.4,0.1-1.2,0.1-2.4c0-1.2,0-2-0.1-2.5c0-0.1-0.1-0.3-0.1-0.5c-0.2-0.9-0.7-1.7-1.3-2.5c-1.2-1.4-2.7-2.1-4.6-2.1
				c-1.9,0-3.4,0.7-4.6,2.1c-0.6,0.7-1,1.5-1.2,2.3c-0.1,0.5-0.2,1.5-0.2,3s0.1,2.6,0.2,3.1c0.2,0.9,0.6,1.6,1.2,2.3
				c1.2,1.4,2.7,2.2,4.6,2.2c1.8,0,3.4-0.7,4.6-2.2c0.6-0.7,1-1.4,1.2-2.3C-567.4,350.7-567.3,350.5-567.3,350.3z"/>
			<path id="XMLID_419_" class="st2" d="M-545.7,325.5c2.6,0,4.8,0.9,6.6,2.8c1.8,1.9,2.8,4.1,2.8,6.7v2c0,2.6-0.9,4.8-2.8,6.6
				c-1.8,1.8-4,2.8-6.6,2.8h-7.4v14.2h-5.2v-35L-545.7,325.5L-545.7,325.5z M-541.5,336.9v-2c0-1.2-0.4-2.2-1.2-3s-1.8-1.2-3-1.2
				h-7.4V341h7.4c1.2,0,2.2-0.4,3-1.2C-541.9,339-541.5,338.1-541.5,336.9z"/>
			<path id="XMLID_422_" class="st2" d="M-522.4,335.7c0.8,0,1.6,0,2.5,0.3v5.1c-0.8-0.3-1.6-0.5-2.5-0.5c-1.9,0-3.4,0.7-4.6,2.2
				c-0.6,0.7-1,1.5-1.2,2.3c-0.1,0.2-0.1,0.6-0.2,1v14.4h-5.1v-25h5.1v2C-526.5,336.3-524.5,335.7-522.4,335.7z"/>
			<path id="XMLID_424_" class="st2" d="M-514.9,338.6c2.2-2.2,4.8-3.3,7.9-3.3s5.7,1.1,7.9,3.3c2.2,2.2,3.3,4.8,3.3,7.9v3.2
				c0,2.5-0.8,4.7-2.3,6.7s-3.4,3.3-5.8,4c-1,0.3-2.1,0.5-3.2,0.5s-2.2-0.2-3.2-0.5c-2.3-0.7-4.3-2-5.8-4s-2.3-4.2-2.3-6.7v-3.2
				C-518.2,343.4-517.1,340.7-514.9,338.6z M-500.9,349.7v-3.2c0-1.7-0.6-3.1-1.8-4.3c-1.2-1.2-2.6-1.8-4.3-1.8s-3.1,0.6-4.3,1.8
				c-1.2,1.2-1.8,2.6-1.8,4.3v3.2c0,1.7,0.6,3.1,1.8,4.3c1.2,1.2,2.6,1.8,4.3,1.8c1.7,0,3.1-0.6,4.3-1.8S-500.9,351.4-500.9,349.7z"
				/>
			<path id="XMLID_427_" class="st2" d="M-472.5,335.5l-7.8,13.7l7.4,11.3h-6.1l-4.6-7l-4.3,7h-6l7.2-11.8l-7.3-13.2h5.9l4.8,8.7
				l5-8.7H-472.5z"/>
			<path id="XMLID_429_" class="st2" d="M-448.4,335.5v23.3c0,3.1-1.1,5.8-3.4,8c-2.2,2.2-4.9,3.3-8,3.3c-1.6,0-3.1-0.2-4.6-0.7
				c-1.4-0.4-2.7-1-4-1.9l2.8-4.3c0.8,0.6,1.7,1,2.7,1.3c1,0.3,2,0.5,3.1,0.5c1.7,0,3.2-0.6,4.4-1.8c1.2-1.2,1.8-2.7,1.8-4.4v-0.2
				c-1.5,1-3.2,1.6-5,1.8c-0.4,0-0.7,0-1,0c-0.4,0-0.8,0-1.2,0c-2.7-0.3-5-1.5-7-3.8c-0.5-0.6-0.9-1.2-1.3-1.9
				c-0.4-0.8-0.8-1.6-1-2.4c-0.1-0.5-0.2-0.9-0.3-1.2c-0.1-0.4-0.1-0.8-0.2-1.2v-14.4h5.2c0,0.7,0,3.2,0,7.5c0,4.3,0,6.8,0.1,7.5
				c0,0.2,0,0.4,0.1,0.7c0.2,0.9,0.6,1.7,1.2,2.3c1.2,1.4,2.7,2.1,4.3,2.1c1.8,0,3.4-0.7,4.6-2.1c0.6-0.7,1-1.5,1.2-2.3
				c0.1-0.3,0.1-0.7,0.1-1.1v-14.6H-448.4z"/>
		</g>
		<g id="XMLID_82_">
			<path id="XMLID_364_" class="st2" d="M-639.3,353.2l4.8-27.7h5.3l-6.1,35h-7.8l-3-16.3l-3.1,16.3h-7.8l-6.1-35h5.2l4.8,27.7
				l3.9-20.5h6.1L-639.3,353.2z"/>
			<path id="XMLID_366_" class="st2" d="M-610.2,335.5h5.1v25h-5.1v-1.6c-1.1,0.7-2.4,1.3-3.7,1.6c-0.7,0.2-1.5,0.3-2.3,0.3
				c-0.9,0-1.7-0.1-2.6-0.3c-2.4-0.6-4.4-1.8-6-3.7c-1.1-1.3-1.8-2.7-2.3-4.3c-0.1-0.5-0.2-0.9-0.3-1.2c-0.1-0.4-0.1-0.8-0.1-1.2v-4
				c0-0.4,0.1-0.8,0.2-1.2c0.1-0.4,0.1-0.8,0.3-1.2c0.5-1.6,1.2-3,2.3-4.3c1-1.2,2.3-2.1,3.8-2.8c1.5-0.7,3.1-1,4.7-1
				c2.1,0,4.1,0.6,5.9,1.8v-1.9H-610.2z M-610.3,351.1c0.1-0.5,0.2-1.5,0.2-3s-0.1-2.6-0.2-3.1c-0.2-0.9-0.6-1.6-1.2-2.3
				c-1.2-1.4-2.8-2.2-4.6-2.2c-1.9,0-3.4,0.7-4.6,2.2c-0.6,0.7-1,1.4-1.3,2.3c-0.1,0.3-0.1,0.5-0.1,0.7c-0.1,0.4-0.1,1.2-0.1,2.4
				c0,1.2,0,2,0.1,2.4c0,0.2,0,0.3,0.1,0.5c0.2,0.9,0.6,1.8,1.3,2.5c1.2,1.4,2.7,2.1,4.6,2.1c1.9,0,3.4-0.7,4.6-2.1
				C-611,352.8-610.6,352-610.3,351.1z"/>
			<path id="XMLID_369_" class="st2" d="M-589.4,335.7c0.8,0,1.6,0,2.4,0.3v5.1c-0.8-0.3-1.6-0.5-2.4-0.5c-1.9,0-3.4,0.7-4.6,2.2
				c-0.6,0.7-1,1.5-1.2,2.3c-0.1,0.2-0.1,0.6-0.1,1v14.4h-5.2v-25h5.2v2C-593.5,336.3-591.6,335.7-589.4,335.7z"/>
			<path id="XMLID_371_" class="st2" d="M-562.2,344.7c0.1,0.4,0.1,0.8,0.1,1.2v3.9c0,0.4-0.1,0.8-0.2,1.2c0,0.4-0.1,0.8-0.3,1.2
				c-0.5,1.6-1.2,3-2.3,4.3c-1,1.2-2.3,2.1-3.8,2.8s-3,1-4.6,1c-2.1,0-4.1-0.6-6-1.8v12h-5.2v-35h5.2v1.6c1.8-1.2,3.8-1.9,6-1.9
				c1.6,0,3.2,0.3,4.7,1c1.5,0.7,2.8,1.7,3.9,2.9c1,1.2,1.8,2.7,2.2,4.3C-562.3,344-562.3,344.4-562.2,344.7z M-567.3,350.3
				c0.1-0.4,0.1-1.2,0.1-2.4c0-1.2,0-2-0.1-2.5c0-0.1-0.1-0.3-0.1-0.5c-0.2-0.9-0.7-1.7-1.3-2.5c-1.2-1.4-2.7-2.1-4.6-2.1
				c-1.9,0-3.4,0.7-4.6,2.1c-0.6,0.7-1,1.5-1.2,2.3c-0.1,0.5-0.2,1.5-0.2,3s0.1,2.6,0.2,3.1c0.2,0.9,0.6,1.6,1.2,2.3
				c1.2,1.4,2.7,2.2,4.6,2.2c1.8,0,3.4-0.7,4.6-2.2c0.6-0.7,1-1.4,1.2-2.3C-567.4,350.7-567.3,350.5-567.3,350.3z"/>
			<path id="XMLID_374_" class="st2" d="M-545.7,325.5c2.6,0,4.8,0.9,6.6,2.8c1.8,1.9,2.8,4.1,2.8,6.7v2c0,2.6-0.9,4.8-2.8,6.6
				c-1.8,1.8-4,2.8-6.6,2.8h-7.4v14.2h-5.2v-35L-545.7,325.5L-545.7,325.5z M-541.5,336.9v-2c0-1.2-0.4-2.2-1.2-3s-1.8-1.2-3-1.2
				h-7.4V341h7.4c1.2,0,2.2-0.4,3-1.2C-541.9,339-541.5,338.1-541.5,336.9z"/>
			<path id="XMLID_377_" class="st2" d="M-522.4,335.7c0.8,0,1.6,0,2.5,0.3v5.1c-0.8-0.3-1.6-0.5-2.5-0.5c-1.9,0-3.4,0.7-4.6,2.2
				c-0.6,0.7-1,1.5-1.2,2.3c-0.1,0.2-0.1,0.6-0.2,1v14.4h-5.1v-25h5.1v2C-526.5,336.3-524.5,335.7-522.4,335.7z"/>
			<path id="XMLID_379_" class="st2" d="M-514.9,338.6c2.2-2.2,4.8-3.3,7.9-3.3s5.7,1.1,7.9,3.3c2.2,2.2,3.3,4.8,3.3,7.9v3.2
				c0,2.5-0.8,4.7-2.3,6.7s-3.4,3.3-5.8,4c-1,0.3-2.1,0.5-3.2,0.5s-2.2-0.2-3.2-0.5c-2.3-0.7-4.3-2-5.8-4s-2.3-4.2-2.3-6.7v-3.2
				C-518.2,343.4-517.1,340.7-514.9,338.6z M-500.9,349.7v-3.2c0-1.7-0.6-3.1-1.8-4.3c-1.2-1.2-2.6-1.8-4.3-1.8s-3.1,0.6-4.3,1.8
				c-1.2,1.2-1.8,2.6-1.8,4.3v3.2c0,1.7,0.6,3.1,1.8,4.3c1.2,1.2,2.6,1.8,4.3,1.8c1.7,0,3.1-0.6,4.3-1.8S-500.9,351.4-500.9,349.7z"
				/>
			<path id="XMLID_382_" class="st2" d="M-472.5,335.5l-7.8,13.7l7.4,11.3h-6.1l-4.6-7l-4.3,7h-6l7.2-11.8l-7.3-13.2h5.9l4.8,8.7
				l5-8.7H-472.5z"/>
			<path id="XMLID_384_" class="st2" d="M-448.4,335.5v23.3c0,3.1-1.1,5.8-3.4,8c-2.2,2.2-4.9,3.3-8,3.3c-1.6,0-3.1-0.2-4.6-0.7
				c-1.4-0.4-2.7-1-4-1.9l2.8-4.3c0.8,0.6,1.7,1,2.7,1.3c1,0.3,2,0.5,3.1,0.5c1.7,0,3.2-0.6,4.4-1.8c1.2-1.2,1.8-2.7,1.8-4.4v-0.2
				c-1.5,1-3.2,1.6-5,1.8c-0.4,0-0.7,0-1,0c-0.4,0-0.8,0-1.2,0c-2.7-0.3-5-1.5-7-3.8c-0.5-0.6-0.9-1.2-1.3-1.9
				c-0.4-0.8-0.8-1.6-1-2.4c-0.1-0.5-0.2-0.9-0.3-1.2c-0.1-0.4-0.1-0.8-0.2-1.2v-14.4h5.2c0,0.7,0,3.2,0,7.5c0,4.3,0,6.8,0.1,7.5
				c0,0.2,0,0.4,0.1,0.7c0.2,0.9,0.6,1.7,1.2,2.3c1.2,1.4,2.7,2.1,4.3,2.1c1.8,0,3.4-0.7,4.6-2.1c0.6-0.7,1-1.5,1.2-2.3
				c0.1-0.3,0.1-0.7,0.1-1.1v-14.6H-448.4z"/>
		</g>
		<g id="XMLID_76_">
			<path id="XMLID_79_" class="st2" d="M-736.7,362c-5.6,0-10.3-2.3-14.1-7c-0.7-0.9-1.2-1.7-1.5-2.4c-0.5-0.8-0.9-1.9-1.3-3.2
				c-0.5-1.6-0.7-3.8-0.7-6.6v-16h7.1v16.7c0,5.6,2.5,9.3,7.6,11.2c1.1,0.3,2.1,0.5,3,0.5c0.9,0,1.9-0.2,3.1-0.5
				c5.1-1.9,7.6-5.6,7.6-11.2v-16.7h7.1v15.9c0,2.8-0.2,5-0.7,6.6c-0.4,1.4-0.8,2.4-1.3,3.2c-0.3,0.7-0.8,1.5-1.5,2.4
				C-726.4,359.7-731.1,362-736.7,362z M-740.2,326.8h7v18.1h-7V326.8z"/>
			<path id="XMLID_77_" class="st2" d="M-715.3,326.8h19.6c7.1,0,12,3.1,14.8,9.3c0.7,1.7,1,3.6,1,5.6c0,4.1-1.6,7.7-4.8,10.8
				c-2,1.8-4.4,2.9-7.3,3.6c-1,0.1-2.1,0.2-3.4,0.2l-12.8,0.1v5.5h-7.1v-12.4h19.3c2.5,0,4.4-0.5,5.5-1.4c1.5-1,2.6-2.5,3.2-4.6
				c0.1-0.6,0.2-1.1,0.2-1.5v-0.7c0-1.8-0.8-3.6-2.4-5.4c-1.6-1.4-3.5-2.2-5.5-2.2h-20.4v-6.9H-715.3z"/>
		</g>
	</g>
</g>
<g id="Layer_3">
	<g id="XMLID_162_">
		<path id="XMLID_165_" class="st2" d="M-414.6,298.5c-5.6,0-10.3-2.3-14.1-7c-0.7-0.9-1.2-1.7-1.5-2.4c-0.5-0.8-0.9-1.9-1.3-3.2
			c-0.5-1.6-0.7-3.8-0.7-6.6v-16h7.1V280c0,5.6,2.5,9.3,7.6,11.2c1.1,0.3,2.1,0.5,3,0.5s1.9-0.2,3.1-0.5c5.1-1.9,7.6-5.6,7.6-11.2
			v-16.7h7.1v15.9c0,2.8-0.2,5-0.7,6.6c-0.4,1.4-0.8,2.4-1.3,3.2c-0.3,0.7-0.8,1.5-1.5,2.4C-404.3,296.2-409,298.5-414.6,298.5z
			 M-418.1,263.3h7v18.1h-7V263.3z"/>
		<path id="XMLID_163_" class="st2" d="M-393.2,263.3h19.6c7.1,0,12,3.1,14.8,9.3c0.7,1.7,1,3.6,1,5.6c0,4.1-1.6,7.7-4.8,10.8
			c-2,1.8-4.4,2.9-7.3,3.6c-1,0.1-2.1,0.2-3.4,0.2l-12.8,0.1v5.5h-7.1V286h19.3c2.5,0,4.4-0.5,5.5-1.4c1.5-1,2.6-2.5,3.2-4.6
			c0.1-0.6,0.2-1.1,0.2-1.5v-0.7c0-1.8-0.8-3.6-2.4-5.4c-1.6-1.4-3.5-2.2-5.5-2.2h-20.3V263.3z"/>
	</g>
</g>
<g id="Layer_4" class="st0">
	<g id="XMLID_219_" class="st1">
		<path id="XMLID_222_" class="st2" d="M-414.6,365c-5.6,0-10.3-2.3-14.1-7c-0.7-0.9-1.2-1.7-1.5-2.4c-0.5-0.8-0.9-1.9-1.3-3.2
			c-0.5-1.6-0.7-3.8-0.7-6.6v-16h7.1v16.7c0,5.6,2.5,9.3,7.6,11.2c1.1,0.3,2.1,0.5,3,0.5s1.9-0.2,3.1-0.5c5.1-1.9,7.6-5.6,7.6-11.2
			v-16.7h7.1v15.9c0,2.8-0.2,5-0.7,6.6c-0.4,1.4-0.8,2.4-1.3,3.2c-0.3,0.7-0.8,1.5-1.5,2.4C-404.3,362.7-409,365-414.6,365z
			 M-418.1,329.8h7v18.1h-7V329.8z"/>
		<path id="XMLID_220_" class="st2" d="M-393.2,329.8h19.6c7.1,0,12,3.1,14.8,9.3c0.7,1.7,1,3.6,1,5.6c0,4.1-1.6,7.7-4.8,10.8
			c-2,1.8-4.4,2.9-7.3,3.6c-1,0.1-2.1,0.2-3.4,0.2l-12.8,0.1v5.5h-7.1v-12.4h19.3c2.5,0,4.4-0.5,5.5-1.4c1.5-1,2.6-2.5,3.2-4.6
			c0.1-0.6,0.2-1.1,0.2-1.5v-0.7c0-1.8-0.8-3.6-2.4-5.4c-1.6-1.4-3.5-2.2-5.5-2.2h-20.3V329.8z"/>
	</g>
</g>
</svg>
