<svg width="26" height="26" viewBox="0 0 26 26" fill="none" xmlns="http://www.w3.org/2000/svg">
  <rect width="26" height="26" rx="13" fill="#EAECF0" />
  <g clip-path="url(#clip0_593_6395)">
    <path
      d="M14.3125 11.25H11.6875C11.5715 11.25 11.4602 11.2961 11.3781 11.3781C11.2961 11.4602 11.25 11.5715 11.25 11.6875V14.3125C11.25 14.4285 11.2961 14.5398 11.3781 14.6219C11.4602 14.7039 11.5715 14.75 11.6875 14.75H14.3125C14.4285 14.75 14.5398 14.7039 14.6219 14.6219C14.7039 14.5398 14.75 14.4285 14.75 14.3125V11.6875C14.75 11.5715 14.7039 11.4602 14.6219 11.3781C14.5398 11.2961 14.4285 11.25 14.3125 11.25ZM13.875 13.875H12.125V12.125H13.875V13.875ZM18.6875 13.875H17.8125V12.125H18.6875C18.8035 12.125 18.9148 12.0789 18.9969 11.9969C19.0789 11.9148 19.125 11.8035 19.125 11.6875C19.125 11.5715 19.0789 11.4602 18.9969 11.3781C18.9148 11.2961 18.8035 11.25 18.6875 11.25H17.8125V9.0625C17.8125 8.83044 17.7203 8.60788 17.5562 8.44378C17.3921 8.27969 17.1696 8.1875 16.9375 8.1875H14.75V7.3125C14.75 7.19647 14.7039 7.08519 14.6219 7.00314C14.5398 6.92109 14.4285 6.875 14.3125 6.875C14.1965 6.875 14.0852 6.92109 14.0031 7.00314C13.9211 7.08519 13.875 7.19647 13.875 7.3125V8.1875H12.125V7.3125C12.125 7.19647 12.0789 7.08519 11.9969 7.00314C11.9148 6.92109 11.8035 6.875 11.6875 6.875C11.5715 6.875 11.4602 6.92109 11.3781 7.00314C11.2961 7.08519 11.25 7.19647 11.25 7.3125V8.1875H9.0625C8.83044 8.1875 8.60788 8.27969 8.44378 8.44378C8.27969 8.60788 8.1875 8.83044 8.1875 9.0625V11.25H7.3125C7.19647 11.25 7.08519 11.2961 7.00314 11.3781C6.92109 11.4602 6.875 11.5715 6.875 11.6875C6.875 11.8035 6.92109 11.9148 7.00314 11.9969C7.08519 12.0789 7.19647 12.125 7.3125 12.125H8.1875V13.875H7.3125C7.19647 13.875 7.08519 13.9211 7.00314 14.0031C6.92109 14.0852 6.875 14.1965 6.875 14.3125C6.875 14.4285 6.92109 14.5398 7.00314 14.6219C7.08519 14.7039 7.19647 14.75 7.3125 14.75H8.1875V16.9375C8.1875 17.1696 8.27969 17.3921 8.44378 17.5562C8.60788 17.7203 8.83044 17.8125 9.0625 17.8125H11.25V18.6875C11.25 18.8035 11.2961 18.9148 11.3781 18.9969C11.4602 19.0789 11.5715 19.125 11.6875 19.125C11.8035 19.125 11.9148 19.0789 11.9969 18.9969C12.0789 18.9148 12.125 18.8035 12.125 18.6875V17.8125H13.875V18.6875C13.875 18.8035 13.9211 18.9148 14.0031 18.9969C14.0852 19.0789 14.1965 19.125 14.3125 19.125C14.4285 19.125 14.5398 19.0789 14.6219 18.9969C14.7039 18.9148 14.75 18.8035 14.75 18.6875V17.8125H16.9375C17.1696 17.8125 17.3921 17.7203 17.5562 17.5562C17.7203 17.3921 17.8125 17.1696 17.8125 16.9375V14.75H18.6875C18.8035 14.75 18.9148 14.7039 18.9969 14.6219C19.0789 14.5398 19.125 14.4285 19.125 14.3125C19.125 14.1965 19.0789 14.0852 18.9969 14.0031C18.9148 13.9211 18.8035 13.875 18.6875 13.875ZM16.9375 16.9375H9.0625V9.0625H16.9375V16.9375Z"
      fill="#98A2B3" />
  </g>
  <defs>
    <clipPath id="clip0_593_6395">
      <rect width="14" height="14" fill="white" transform="translate(6 6)" />
    </clipPath>
  </defs>
</svg>