<svg width="26" height="26" viewBox="0 0 26 26" fill="none" xmlns="http://www.w3.org/2000/svg">
  <rect width="26" height="26" rx="13" fill="#EAECF0" />
  <path
    d="M17.375 16.5H16.5V15.625H17.375V16.5ZM15.625 16.5H14.75V15.625H15.625V16.5ZM17.375 13H16.5V12.125H17.375V13ZM15.625 13H14.75V12.125H15.625V13ZM17.8125 6.875C17.9948 6.875 18.1657 6.90918 18.3252 6.97754C18.4847 7.0459 18.6237 7.13932 18.7422 7.25781C18.8607 7.3763 18.9541 7.5153 19.0225 7.6748C19.0908 7.83431 19.125 8.00521 19.125 8.1875V18.25H6.875V8.1875C6.875 8.00521 6.90918 7.83431 6.97754 7.6748C7.0459 7.5153 7.13932 7.3763 7.25781 7.25781C7.3763 7.13932 7.5153 7.0459 7.6748 6.97754C7.83431 6.90918 8.00521 6.875 8.1875 6.875H17.8125ZM18.25 14.75H7.75V17.375H18.25V14.75ZM18.25 11.25H7.75V13.875H18.25V11.25ZM18.25 10.375V8.1875C18.25 8.06901 18.2067 7.96647 18.1201 7.87988C18.0335 7.79329 17.931 7.75 17.8125 7.75H8.1875C8.06901 7.75 7.96647 7.79329 7.87988 7.87988C7.79329 7.96647 7.75 8.06901 7.75 8.1875V10.375H18.25ZM16.5 8.625H17.375V9.5H16.5V8.625ZM14.75 8.625H15.625V9.5H14.75V8.625Z"
    fill="#98A2B3" />
</svg>