<svg width="26" height="26" viewBox="0 0 26 26" fill="none" xmlns="http://www.w3.org/2000/svg">
  <rect width="26" height="26" rx="13" fill="#EAECF0" />
  <path
    d="M8.91667 8.33333C8.91667 8.48804 8.85521 8.63642 8.74581 8.74581C8.63642 8.85521 8.48804 8.91667 8.33333 8.91667C8.17862 8.91667 8.03025 8.85521 7.92085 8.74581C7.81146 8.63642 7.75 8.48804 7.75 8.33333C7.75 8.17862 7.81146 8.03025 7.92085 7.92085C8.03025 7.81146 8.17862 7.75 8.33333 7.75C8.48804 7.75 8.63642 7.81146 8.74581 7.92085C8.85521 8.03025 8.91667 8.17862 8.91667 8.33333ZM11.25 8.33333C11.25 8.48804 11.1885 8.63642 11.0791 8.74581C10.9697 8.85521 10.8214 8.91667 10.6667 8.91667C10.512 8.91667 10.3636 8.85521 10.2542 8.74581C10.1448 8.63642 10.0833 8.48804 10.0833 8.33333C10.0833 8.17862 10.1448 8.03025 10.2542 7.92085C10.3636 7.81146 10.512 7.75 10.6667 7.75C10.8214 7.75 10.9697 7.81146 11.0791 7.92085C11.1885 8.03025 11.25 8.17862 11.25 8.33333ZM13 8.91667C13.1547 8.91667 13.3031 8.85521 13.4125 8.74581C13.5219 8.63642 13.5833 8.48804 13.5833 8.33333C13.5833 8.17862 13.5219 8.03025 13.4125 7.92085C13.3031 7.81146 13.1547 7.75 13 7.75C12.8453 7.75 12.6969 7.81146 12.5875 7.92085C12.4781 8.03025 12.4167 8.17862 12.4167 8.33333C12.4167 8.48804 12.4781 8.63642 12.5875 8.74581C12.6969 8.85521 12.8453 8.91667 13 8.91667ZM15.9167 8.33333C15.9167 8.48804 15.8552 8.63642 15.7458 8.74581C15.6364 8.85521 15.488 8.91667 15.3333 8.91667C15.1786 8.91667 15.0303 8.85521 14.9209 8.74581C14.8115 8.63642 14.75 8.48804 14.75 8.33333C14.75 8.17862 14.8115 8.03025 14.9209 7.92085C15.0303 7.81146 15.1786 7.75 15.3333 7.75C15.488 7.75 15.6364 7.81146 15.7458 7.92085C15.8552 8.03025 15.9167 8.17862 15.9167 8.33333ZM17.6667 8.91667C17.8214 8.91667 17.9697 8.85521 18.0791 8.74581C18.1885 8.63642 18.25 8.48804 18.25 8.33333C18.25 8.17862 18.1885 8.03025 18.0791 7.92085C17.9697 7.81146 17.8214 7.75 17.6667 7.75C17.512 7.75 17.3636 7.81146 17.2542 7.92085C17.1448 8.03025 17.0833 8.17862 17.0833 8.33333C17.0833 8.48804 17.1448 8.63642 17.2542 8.74581C17.3636 8.85521 17.512 8.91667 17.6667 8.91667ZM8.91667 17.6667C8.91667 17.8214 8.85521 17.9697 8.74581 18.0791C8.63642 18.1885 8.48804 18.25 8.33333 18.25C8.17862 18.25 8.03025 18.1885 7.92085 18.0791C7.81146 17.9697 7.75 17.8214 7.75 17.6667C7.75 17.512 7.81146 17.3636 7.92085 17.2542C8.03025 17.1448 8.17862 17.0833 8.33333 17.0833C8.48804 17.0833 8.63642 17.1448 8.74581 17.2542C8.85521 17.3636 8.91667 17.512 8.91667 17.6667ZM11.25 17.6667C11.25 17.8214 11.1885 17.9697 11.0791 18.0791C10.9697 18.1885 10.8214 18.25 10.6667 18.25C10.512 18.25 10.3636 18.1885 10.2542 18.0791C10.1448 17.9697 10.0833 17.8214 10.0833 17.6667C10.0833 17.512 10.1448 17.3636 10.2542 17.2542C10.3636 17.1448 10.512 17.0833 10.6667 17.0833C10.8214 17.0833 10.9697 17.1448 11.0791 17.2542C11.1885 17.3636 11.25 17.512 11.25 17.6667ZM13 18.25C13.1547 18.25 13.3031 18.1885 13.4125 18.0791C13.5219 17.9697 13.5833 17.8214 13.5833 17.6667C13.5833 17.512 13.5219 17.3636 13.4125 17.2542C13.3031 17.1448 13.1547 17.0833 13 17.0833C12.8453 17.0833 12.6969 17.1448 12.5875 17.2542C12.4781 17.3636 12.4167 17.512 12.4167 17.6667C12.4167 17.8214 12.4781 17.9697 12.5875 18.0791C12.6969 18.1885 12.8453 18.25 13 18.25ZM15.9167 17.6667C15.9167 17.8214 15.8552 17.9697 15.7458 18.0791C15.6364 18.1885 15.488 18.25 15.3333 18.25C15.1786 18.25 15.0303 18.1885 14.9209 18.0791C14.8115 17.9697 14.75 17.8214 14.75 17.6667C14.75 17.512 14.8115 17.3636 14.9209 17.2542C15.0303 17.1448 15.1786 17.0833 15.3333 17.0833C15.488 17.0833 15.6364 17.1448 15.7458 17.2542C15.8552 17.3636 15.9167 17.512 15.9167 17.6667ZM17.6667 18.25C17.8214 18.25 17.9697 18.1885 18.0791 18.0791C18.1885 17.9697 18.25 17.8214 18.25 17.6667C18.25 17.512 18.1885 17.3636 18.0791 17.2542C17.9697 17.1448 17.8214 17.0833 17.6667 17.0833C17.512 17.0833 17.3636 17.1448 17.2542 17.2542C17.1448 17.3636 17.0833 17.512 17.0833 17.6667C17.0833 17.8214 17.1448 17.9697 17.2542 18.0791C17.3636 18.1885 17.512 18.25 17.6667 18.25ZM8.91667 13C9.07138 13 9.21975 12.9385 9.32915 12.8291C9.43854 12.7197 9.5 12.5714 9.5 12.4167C9.5 12.262 9.43854 12.1136 9.32915 12.0042C9.21975 11.8948 9.07138 11.8333 8.91667 11.8333C8.76196 11.8333 8.61358 11.8948 8.50419 12.0042C8.39479 12.1136 8.33333 12.262 8.33333 12.4167C8.33333 12.5714 8.39479 12.7197 8.50419 12.8291C8.61358 12.9385 8.76196 13 8.91667 13ZM17.6667 13.5833C17.6667 13.738 17.6052 13.8864 17.4958 13.9958C17.3864 14.1052 17.238 14.1667 17.0833 14.1667C16.9286 14.1667 16.7802 14.1052 16.6709 13.9958C16.5615 13.8864 16.5 13.738 16.5 13.5833C16.5 13.4286 16.5615 13.2803 16.6709 13.1709C16.7802 13.0615 16.9286 13 17.0833 13C17.238 13 17.3864 13.0615 17.4958 13.1709C17.6052 13.2803 17.6667 13.4286 17.6667 13.5833Z"
    fill="#98A2B3" />
  <path fill-rule="evenodd" clip-rule="evenodd"
    d="M6 11.25C6 10.7859 6.18437 10.3408 6.51256 10.0126C6.84075 9.68437 7.28587 9.5 7.75 9.5H18.25C18.7141 9.5 19.1592 9.68437 19.4874 10.0126C19.8156 10.3408 20 10.7859 20 11.25V14.75C20 15.2141 19.8156 15.6592 19.4874 15.9874C19.1592 16.3156 18.7141 16.5 18.25 16.5H7.75C7.28587 16.5 6.84075 16.3156 6.51256 15.9874C6.18437 15.6592 6 15.2141 6 14.75V11.25ZM7.75 10.6667H18.25C18.4047 10.6667 18.5531 10.7281 18.6625 10.8375C18.7719 10.9469 18.8333 11.0953 18.8333 11.25V14.75C18.8333 14.9047 18.7719 15.0531 18.6625 15.1625C18.5531 15.2719 18.4047 15.3333 18.25 15.3333H7.75C7.59529 15.3333 7.44692 15.2719 7.33752 15.1625C7.22812 15.0531 7.16667 14.9047 7.16667 14.75V11.25C7.16667 11.0953 7.22812 10.9469 7.33752 10.8375C7.44692 10.7281 7.59529 10.6667 7.75 10.6667Z"
    fill="#98A2B3" />
</svg>