<svg width="226" height="142" viewBox="0 0 226 142" fill="none" xmlns="http://www.w3.org/2000/svg">
<path opacity="0.55" d="M1 94.4255C1 94.4255 22.6392 55.0815 52.1472 72.7863C81.6552 90.4911 93.4582 70.8191 99.3598 47.2127C105.261 23.6064 130.843 23.6064 152.476 29.508C174.11 35.4096 203.623 31.4752 203.623 0" stroke="#4F46E5" stroke-width="2"/>
<path opacity="0.55" d="M12 117.426C12 117.426 33.6392 78.0815 63.1472 95.7863C92.6552 113.491 104.458 93.8191 110.36 70.2127C116.261 46.6064 141.843 46.6064 163.476 52.508C185.11 58.4096 215 56.4752 215 25" stroke="#4F46E5" stroke-opacity="0.7" stroke-width="2"/>
<path opacity="0.55" d="M22 141.426C22 141.426 43.6392 102.082 73.1472 119.786C102.655 137.491 114.458 117.819 120.36 94.2127C126.261 70.6064 151.843 70.6064 173.476 76.508C195.11 82.4096 224.623 78.4752 224.623 47" stroke="#4F46E5" stroke-opacity="0.3" stroke-width="2"/>
</svg>
